<?xml version="1.0" encoding="UTF-8" standalone="no"?>
<!-- Created with Inkscape (http://www.inkscape.org/) -->

<svg
   width="180"
   height="180"
   viewBox="0 0 47.624999 47.625001"
   version="1.1"
   id="svg1537"
   inkscape:version="1.1 (c68e22c387, 2021-05-23)"
   sodipodi:docname="poumons.svg"
   xmlns:inkscape="http://www.inkscape.org/namespaces/inkscape"
   xmlns:sodipodi="http://sodipodi.sourceforge.net/DTD/sodipodi-0.dtd"
   xmlns="http://www.w3.org/2000/svg"
   xmlns:svg="http://www.w3.org/2000/svg">
  <sodipodi:namedview
     id="namedview1539"
     pagecolor="#ffffff"
     bordercolor="#666666"
     borderopacity="1.0"
     inkscape:pageshadow="2"
     inkscape:pageopacity="0.0"
     inkscape:pagecheckerboard="0"
     inkscape:document-units="mm"
     showgrid="true"
     units="px"
     inkscape:snap-bbox="true"
     inkscape:zoom="1.0531663"
     inkscape:cx="94.002248"
     inkscape:cy="71.213824"
     inkscape:window-width="1600"
     inkscape:window-height="799"
     inkscape:window-x="0"
     inkscape:window-y="0"
     inkscape:window-maximized="1"
     inkscape:current-layer="layer1"
     inkscape:snap-nodes="false"
     inkscape:bbox-paths="true"
     inkscape:snap-bbox-edge-midpoints="true">
    <inkscape:grid
       type="xygrid"
       id="grid1598"
       spacingx="0.79375"
       spacingy="0.79375"
       color="#4c6bc4"
       opacity="0.12156863"
       empcolor="#3f3fff"
       empopacity="0.16862745" />
  </sodipodi:namedview>
  <defs
     id="defs1534" />
  <g
     inkscape:label="Calque 1"
     inkscape:groupmode="layer"
     id="layer1">
    <g
       id="path2793">
      <g
         id="g2604" />
      <path
         style="color:#000000;fill:none;stroke-width:2.15171;stroke-linejoin:round;-inkscape-stroke:none"
         d="M 21.770231,37.626098 C 17.820382,34.454388 13.309968,32.40378 5.0258525,37.900584 8.4007817,-5.0164873 23.310082,6.1273589 21.770231,37.626098 Z"
         id="path2392" />
      <path
         style="color:#000000;fill:#000000;stroke-linejoin:round;-inkscape-stroke:none"
         d="M 13.492188,8.7675781 C 12.790754,8.9428398 12.107005,9.3080237 11.501953,9.8398438 10.291849,10.903484 9.2489834,12.573079 8.2871094,14.914063 6.3633614,19.596029 4.8019951,27.021803 3.953125,37.816406 a 1.0759626,1.0759626 0 0 0 1.6679687,0.980469 c 4.0157425,-2.664587 6.9572273,-3.409705 9.3125003,-3.212891 2.355272,0.196815 4.254814,1.349311 6.162109,2.88086 a 1.0759626,1.0759626 0 0 0 1.75,-0.78711 C 23.234951,29.715398 22.590942,23.024627 21.320312,18.078125 20.684998,15.604874 19.896254,13.567166 18.962891,12.003906 18.029527,10.440646 16.94375,9.304753 15.589844,8.8398438 14.912891,8.6073891 14.193621,8.5923165 13.492188,8.7675781 Z m 0.486328,2.0507809 c 0.312476,-0.0829 0.601839,-0.05057 0.914062,0.05664 0.624447,0.214425 1.440564,0.920567 2.222656,2.230469 0.782093,1.309902 1.522471,3.177402 2.121094,5.507812 1.087158,4.232255 1.611931,10.148178 1.433594,17.001953 -1.62765,-1.07777 -3.38783,-1.992595 -5.556641,-2.173828 -2.472408,-0.206602 -5.4146265,0.72554 -8.7656248,2.597656 0.8731411,-9.445228 2.2845172,-16.304621 3.9296878,-20.308593 0.88641,-2.157322 1.833959,-3.559256 2.646484,-4.273438 0.406263,-0.35709 0.742211,-0.55577 1.054688,-0.638672 z"
         id="path2394" />
    </g>
    <g
       id="path2795">
      <path
         style="color:#000000;fill:none;stroke-width:2.15171;stroke-linejoin:round;-inkscape-stroke:none"
         d="m 25.83603,37.626098 c 3.949852,-3.17171 8.460266,-5.222318 16.74438,0.274486 C 39.205481,-5.0164873 24.296181,6.1273589 25.83603,37.626098 Z"
         id="path2384" />
      <path
         style="color:#000000;fill:#000000;stroke-linejoin:round;-inkscape-stroke:none"
         d="m 34.113281,8.7675781 c -0.701433,-0.1752616 -1.420703,-0.160189 -2.097656,0.072266 -1.353906,0.4649092 -2.437731,1.6008022 -3.371094,3.1640622 -0.933363,1.56326 -1.72406,3.600968 -2.359375,6.074219 -1.27063,4.946502 -1.912684,11.637273 -1.523437,19.599609 a 1.0759626,1.0759626 0 0 0 1.748047,0.78711 c 1.907296,-1.531549 3.806836,-2.684045 6.162109,-2.88086 2.355273,-0.196814 5.298711,0.548304 9.314453,3.212891 a 1.0759626,1.0759626 0 0 0 1.666016,-0.980469 C 42.803474,27.021803 41.242107,19.596029 39.318359,14.914063 38.356485,12.573079 37.31362,10.903484 36.103516,9.8398438 35.498463,9.3080237 34.814714,8.9428398 34.113281,8.7675781 Z m -0.484375,2.0507809 c 0.312477,0.0829 0.648425,0.281582 1.054688,0.638672 0.812525,0.714182 1.758121,2.116116 2.644531,4.273438 1.645168,4.003966 3.056546,10.863387 3.929687,20.308593 -3.350292,-1.871426 -6.291659,-2.804225 -8.763671,-2.597656 -2.168811,0.181233 -3.930943,1.096058 -5.558594,2.173828 -0.178336,-6.853775 0.348389,-12.769698 1.435547,-17.001953 0.598623,-2.33041 1.339001,-4.19791 2.121093,-5.507812 0.782093,-1.309902 1.59821,-2.016044 2.222657,-2.230469 0.312223,-0.107213 0.601586,-0.139543 0.914062,-0.05664 z"
         id="path2386" />
    </g>
  </g>
</svg>
