<?xml version="1.0" standalone="no"?>
<!DOCTYPE svg PUBLIC "-//W3C//DTD SVG 20010904//EN"
 "http://www.w3.org/TR/2001/REC-SVG-20010904/DTD/svg10.dtd">
<svg version="1.0" xmlns="http://www.w3.org/2000/svg"
 width="750.000000pt" height="863.000000pt" viewBox="0 0 750.000000 863.000000"
 preserveAspectRatio="xMidYMid meet">
<metadata>
Created by potrace 1.16, written by Peter Selinger 2001-2019
</metadata>
<g transform="translate(0.000000,863.000000) scale(0.100000,-0.100000)"
fill="#000000" stroke="none">
<path d="M1879 7565 c-1355 -782 -1849 -1072 -1861 -1092 -17 -26 -18 -149
-18 -2156 0 -1830 2 -2132 14 -2156 12 -22 409 -255 1857 -1091 1013 -585
1855 -1066 1870 -1068 15 -2 37 2 50 8 13 7 847 487 1852 1068 1453 838 1831
1060 1842 1083 13 24 15 309 15 2156 0 2007 -1 2130 -18 2156 -12 21 -484 298
-1827 1073 -995 575 -1827 1054 -1847 1065 -21 10 -48 19 -61 19 -13 0 -853
-479 -1868 -1065z m3654 -180 l1767 -1020 0 -2050 0 -2050 -1767 -1020 c-973
-561 -1775 -1020 -1784 -1019 -12 0 -1698 969 -3486 2003 l-63 36 0 2050 0
2050 898 518 c493 284 1289 744 1767 1021 479 277 877 504 886 503 9 -1 811
-461 1782 -1022z"/>
<path d="M5132 7039 c-58 -11 -139 -57 -168 -94 -48 -64 -68 -124 -68 -215 -1
-149 50 -242 162 -297 51 -25 68 -28 157 -28 89 0 106 3 157 28 104 51 150
128 156 263 6 120 -14 189 -71 251 -50 54 -94 78 -172 92 -66 12 -92 12 -153
0z m166 -136 c91 -68 95 -275 7 -352 -30 -26 -44 -31 -88 -31 -108 0 -152 59
-152 205 0 103 17 143 76 183 27 19 43 23 82 19 27 -2 60 -13 75 -24z"/>
<path d="M4400 6725 l0 -315 220 0 220 0 0 60 0 60 -140 0 -140 0 -2 253 -3
252 -77 3 -78 3 0 -316z"/>
<path d="M1990 6720 l0 -310 80 0 80 0 0 310 0 310 -80 0 -80 0 0 -310z"/>
<path d="M2290 6720 l0 -310 75 0 75 0 2 211 3 210 110 -208 110 -208 93 -3
92 -3 0 311 0 310 -80 0 -80 0 -2 -202 -3 -203 -106 200 -105 200 -92 3 -92 3
0 -311z"/>
<path d="M3010 6720 l0 -310 80 0 80 0 0 135 0 135 120 0 120 0 0 -135 0 -135
80 0 80 0 0 310 0 310 -80 0 -80 0 0 -115 0 -115 -120 0 -120 0 0 115 0 115
-80 0 -80 0 0 -310z"/>
<path d="M3767 6738 c-59 -161 -110 -303 -114 -316 -5 -23 -5 -23 73 -20 l79
3 20 58 20 57 126 0 127 0 19 -57 20 -58 76 -3 c58 -2 77 0 77 10 0 7 -50 149
-111 316 l-112 302 -96 0 -96 0 -108 -292z m246 25 c21 -60 37 -111 37 -115 0
-5 -36 -8 -81 -8 -61 0 -80 3 -76 13 2 6 19 58 38 115 18 56 36 102 39 102 3
0 23 -48 43 -107z"/>
<path d="M2310 5753 c-73 -37 -70 -9 -70 -756 0 -722 -1 -715 54 -750 39 -26
78 -31 118 -14 75 31 72 17 78 530 l5 460 112 -140 c192 -241 401 -436 625
-586 92 -61 324 -184 416 -220 l42 -17 0 -736 0 -736 34 -34 c30 -30 40 -34
85 -34 75 0 99 27 156 175 210 541 601 965 1195 1293 102 57 127 75 143 105
39 76 -9 165 -96 174 -43 5 -55 1 -164 -59 -464 -254 -785 -537 -1045 -917
l-57 -83 -3 488 -3 489 -23 32 c-16 23 -45 41 -105 65 -113 45 -298 136 -382
188 -310 190 -615 512 -885 933 -43 67 -89 130 -102 140 -36 27 -87 31 -128
10z"/>
<path d="M2750 2240 l-21 -30 23 0 c13 0 39 13 58 30 l35 29 -37 1 c-30 0 -41
-6 -58 -30z"/>
<path d="M1752 2133 l3 -38 63 -3 62 -3 0 -154 0 -155 55 0 55 0 0 155 0 154
63 3 62 3 3 38 3 37 -186 0 -186 0 3 -37z"/>
<path d="M2180 1975 l0 -195 50 0 50 0 0 80 0 80 75 0 75 0 0 -80 0 -80 50 0
50 0 0 195 0 195 -50 0 -50 0 0 -75 0 -75 -75 0 -75 0 0 75 0 75 -50 0 -50 0
0 -195z"/>
<path d="M2630 1975 l0 -195 140 0 140 0 0 40 0 40 -90 0 -90 0 0 40 0 40 80
0 80 0 0 40 0 40 -80 0 -80 0 0 35 0 35 85 0 85 0 0 40 0 40 -135 0 -135 0 0
-195z"/>
<path d="M3010 1975 l0 -195 50 0 50 0 0 75 0 75 28 0 c34 0 61 -27 96 -97
l26 -53 50 0 c28 0 50 2 50 5 0 16 -74 148 -90 162 -19 17 -19 18 12 43 25 21
31 33 31 66 0 90 -42 114 -198 114 l-105 0 0 -195z m181 115 c22 -12 26 -59 7
-78 -7 -7 -29 -12 -50 -12 l-38 0 0 50 c0 49 1 50 31 50 17 0 39 -5 50 -10z"/>
<path d="M3519 2143 c-6 -15 -39 -103 -74 -195 l-63 -168 53 0 c50 0 52 1 61
33 l10 32 81 3 81 3 13 -36 c12 -33 15 -35 61 -35 26 0 48 4 48 9 0 4 -31 91
-69 192 l-69 184 -61 3 c-59 3 -62 2 -72 -25z m99 -145 c12 -35 22 -66 22 -70
0 -5 -22 -8 -50 -8 -27 0 -50 4 -50 8 0 18 42 132 49 132 4 0 17 -28 29 -62z"/>
<path d="M3840 1975 l0 -195 50 0 50 0 0 70 0 70 60 0 c111 0 160 38 160 123
0 97 -51 127 -215 127 l-105 0 0 -195z m198 109 c49 -34 15 -94 -55 -94 l-43
0 0 55 0 55 38 0 c21 0 48 -7 60 -16z"/>
<path d="M4260 1975 l0 -195 140 0 140 0 0 40 0 40 -90 0 -90 0 0 40 0 40 80
0 80 0 0 40 0 40 -80 0 -80 0 0 35 0 35 85 0 85 0 0 40 0 40 -135 0 -135 0 0
-195z"/>
<path d="M4640 2028 c0 -158 10 -193 63 -232 41 -30 173 -30 214 0 53 39 63
74 63 232 l0 142 -49 0 -50 0 -3 -145 c-3 -161 -10 -178 -68 -178 -58 0 -65
17 -68 178 l-3 145 -50 0 -49 0 0 -142z"/>
<path d="M5042 2133 l3 -38 63 -3 62 -3 0 -154 0 -155 55 0 55 0 0 155 0 154
63 3 62 3 3 38 3 37 -186 0 -186 0 3 -37z"/>
<path d="M5470 1975 l0 -195 140 0 140 0 0 40 0 40 -90 0 -90 0 0 40 0 40 80
0 80 0 0 40 0 40 -80 0 -80 0 0 35 0 35 85 0 85 0 0 40 0 40 -135 0 -135 0 0
-195z"/>
</g>
</svg>
