<?xml version="1.0" encoding="UTF-8" standalone="no"?>
<!-- Created with Inkscape (http://www.inkscape.org/) -->

<svg
   width="180"
   height="180"
   viewBox="0 0 180 180"
   version="1.1"
   id="svg5"
   sodipodi:docname="Inhalothérapie.svg"
   inkscape:version="1.3.2 (091e20ef0f, 2023-11-25)"
   xml:space="preserve"
   inkscape:export-filename="originaux/poumons_avec_bronches.svg"
   inkscape:export-xdpi="50"
   inkscape:export-ydpi="50"
   xmlns:inkscape="http://www.inkscape.org/namespaces/inkscape"
   xmlns:sodipodi="http://sodipodi.sourceforge.net/DTD/sodipodi-0.dtd"
   xmlns:xlink="http://www.w3.org/1999/xlink"
   xmlns="http://www.w3.org/2000/svg"
   xmlns:svg="http://www.w3.org/2000/svg"
   xmlns:rdf="http://www.w3.org/1999/02/22-rdf-syntax-ns#"
   xmlns:cc="http://creativecommons.org/ns#"
   xmlns:dc="http://purl.org/dc/elements/1.1/"><title
     id="title3399">Inhalothérapie</title><sodipodi:namedview
     id="namedview7"
     pagecolor="#ffffff"
     bordercolor="#666666"
     borderopacity="1.0"
     inkscape:pageshadow="2"
     inkscape:pageopacity="0.0"
     inkscape:pagecheckerboard="0"
     inkscape:document-units="px"
     showgrid="true"
     inkscape:snap-bbox="true"
     inkscape:snap-nodes="false"
     inkscape:bbox-paths="true"
     inkscape:bbox-nodes="true"
     inkscape:snap-bbox-edge-midpoints="true"
     inkscape:snap-bbox-midpoints="true"
     inkscape:zoom="2.6969228"
     inkscape:cx="111.97948"
     inkscape:cy="125.14263"
     inkscape:window-width="1920"
     inkscape:window-height="1001"
     inkscape:window-x="0"
     inkscape:window-y="0"
     inkscape:window-maximized="1"
     inkscape:current-layer="layer5"
     inkscape:snap-global="true"
     showguides="true"
     inkscape:showpageshadow="0"
     inkscape:deskcolor="#d1d1d1"><inkscape:grid
       type="xygrid"
       id="grid824"
       color="#3f8bff"
       opacity="0.12549"
       spacingx="1"
       spacingy="1"
       originx="0"
       originy="0"
       units="px"
       visible="true" /><sodipodi:guide
       position="90,90"
       orientation="0,1"
       id="guide4885"
       inkscape:locked="false"
       inkscape:label=""
       inkscape:color="rgb(0,134,229)" /><sodipodi:guide
       position="90,90"
       orientation="-1,0"
       id="guide4887"
       inkscape:locked="false"
       inkscape:label=""
       inkscape:color="rgb(0,134,229)" /></sodipodi:namedview><defs
     id="defs2"><inkscape:perspective
       sodipodi:type="inkscape:persp3d"
       inkscape:vp_x="0 : 90 : 1"
       inkscape:vp_y="0 : 1000 : 0"
       inkscape:vp_z="180 : 90 : 1"
       inkscape:persp3d-origin="90 : 60 : 1"
       id="perspective1" /><inkscape:path-effect
       effect="fillet_chamfer"
       id="path-effect18"
       is_visible="true"
       lpeversion="1"
       nodesatellites_param="F,0,1,1,0,5.4531076,0,1 @ F,0,0,1,0,0,0,1 @ F,0,0,1,0,0,0,1 @ F,0,0,1,0,0,0,1 @ F,0,0,1,0,0,0,1 @ F,0,0,1,0,0,0,1 @ F,0,0,1,0,0,0,1 @ F,0,0,1,0,0,0,1 @ F,0,0,1,0,0,0,1 @ F,0,0,1,0,5.4531076,0,1"
       radius="0"
       unit="px"
       method="auto"
       mode="F"
       chamfer_steps="1"
       flexible="false"
       use_knot_distance="true"
       apply_no_radius="true"
       apply_with_radius="true"
       only_selected="false"
       hide_knots="false" /><inkscape:path-effect
       effect="fillet_chamfer"
       id="path-effect7"
       is_visible="true"
       lpeversion="1"
       nodesatellites_param="F,0,1,1,0,20.5,0,1 @ F,0,0,1,0,20.5,0,1 @ F,0,1,1,0,20.5,0,1 @ F,0,1,1,0,20.5,0,1"
       radius="0"
       unit="px"
       method="auto"
       mode="F"
       chamfer_steps="1"
       flexible="false"
       use_knot_distance="true"
       apply_no_radius="true"
       apply_with_radius="true"
       only_selected="false"
       hide_knots="false" /><style
       id="style120"><![CDATA[
.class1 { 
}
]]></style><mask
       maskUnits="userSpaceOnUse"
       id="mask-powermask-path-effect3424">
<path
   id="mask-powermask-path-effect3424_box"
   style="fill:#ffffff;fill-opacity:1"
   d="m 6.318298,7.73125 h 29.634745 v 38.0127 H 6.318298 Z" /><path
   id="path3422"
   style="fill:#000000;stroke:#ffffff;stroke-width:0;stroke-linecap:round;stroke-linejoin:round;paint-order:stroke fill markers"
   d="m 21.911884,38.217851 c 3.050992,5.952508 -8.089916,9.666144 -10.015958,5.196131 -1.926041,-4.470017 6.964966,-11.148642 10.015958,-5.196131 z"
   sodipodi:nodetypes="zzz" />
	</mask><marker
       style="overflow:visible"
       id="Arrow1Lend"
       refX="0"
       refY="0"
       orient="auto"
       inkscape:stockid="Arrow1Lend"
       inkscape:isstock="true"><path
         transform="matrix(-0.8,0,0,-0.8,-10,0)"
         style="fill:context-stroke;fill-rule:evenodd;stroke:context-stroke;stroke-width:1pt"
         d="M 0,0 5,-5 -12.5,0 5,5 Z"
         id="path47497" /></marker><inkscape:path-effect
       effect="fillet_chamfer"
       id="path-effect6874"
       is_visible="true"
       lpeversion="1"
       satellites_param="F,0,0,1,0,5,0,1 @ F,0,0,1,0,5,0,1 @ F,0,0,1,0,5,0,1 @ F,0,0,1,0,5,0,1 @ F,0,0,1,0,5,0,1 @ F,0,0,1,0,5,0,1 @ F,0,0,1,0,5,0,1 @ F,0,0,1,0,5,0,1 @ F,0,0,1,0,5,0,1 @ F,0,0,1,0,5,0,1 @ F,0,0,1,0,5,0,1 @ F,0,0,1,0,5,0,1 @ F,0,0,1,0,5,0,1 @ F,0,0,1,0,5,0,1 @ F,0,0,1,0,5,0,1 @ F,0,0,1,0,5,0,1 @ F,0,0,1,0,5,0,1 @ F,0,0,1,0,5,0,1 @ F,0,0,1,0,5,0,1 @ F,0,0,1,0,5,0,1 @ F,0,0,1,0,5,0,1 @ F,0,0,1,0,5,0,1 @ F,0,0,1,0,5,0,1 @ F,0,0,1,0,5,0,1 @ F,0,0,1,0,5,0,1 @ F,0,0,1,0,5,0,1"
       unit="px"
       method="auto"
       mode="F"
       radius="5"
       chamfer_steps="1"
       flexible="false"
       use_knot_distance="true"
       apply_no_radius="true"
       apply_with_radius="true"
       only_selected="false"
       hide_knots="false"
       nodesatellites_param="F,0,0,1,0,5,0,1 @ F,0,0,1,0,5,0,1 @ F,0,0,1,0,5,0,1 @ F,0,0,1,0,5,0,1 @ F,0,0,1,0,5,0,1 @ F,0,0,1,0,5,0,1 @ F,0,0,1,0,5,0,1 @ F,0,0,1,0,5,0,1 @ F,0,0,1,0,5,0,1 @ F,0,0,1,0,5,0,1 @ F,0,0,1,0,5,0,1 @ F,0,0,1,0,5,0,1 @ F,0,0,1,0,5,0,1 @ F,0,0,1,0,5,0,1 @ F,0,0,1,0,5,0,1 @ F,0,0,1,0,5,0,1 @ F,0,0,1,0,5,0,1 @ F,0,0,1,0,5,0,1 @ F,0,0,1,0,5,0,1 @ F,0,0,1,0,5,0,1 @ F,0,0,1,0,5,0,1 @ F,0,0,1,0,5,0,1 @ F,0,0,1,0,5,0,1 @ F,0,0,1,0,5,0,1 @ F,0,0,1,0,5,0,1 @ F,0,0,1,0,5,0,1" /><style
       id="style7266"><![CDATA[
.class1 { 
    stroke:none;
    stroke-dasharray:none;
    stroke-linejoin:round;
    stroke-miterlimit:4;
    stroke-opacity:3;
}
]]></style><inkscape:path-effect
       effect="fillet_chamfer"
       id="path-effect3606"
       is_visible="true"
       lpeversion="1"
       satellites_param="F,0,0,1,0,9,0,1 @ F,0,0,1,0,9,0,1"
       unit="px"
       method="auto"
       mode="F"
       radius="9"
       chamfer_steps="1"
       flexible="false"
       use_knot_distance="true"
       apply_no_radius="true"
       apply_with_radius="true"
       only_selected="false"
       hide_knots="false"
       nodesatellites_param="F,0,0,1,0,9,0,1 @ F,0,0,1,0,9,0,1" /><inkscape:path-effect
       effect="fillet_chamfer"
       id="path-effect3180"
       is_visible="true"
       lpeversion="1"
       satellites_param="F,0,0,1,0,5,0,1 @ F,0,0,1,0,5,0,1"
       unit="px"
       method="auto"
       mode="F"
       radius="5"
       chamfer_steps="1"
       flexible="false"
       use_knot_distance="true"
       apply_no_radius="true"
       apply_with_radius="true"
       only_selected="false"
       hide_knots="false"
       nodesatellites_param="F,0,0,1,0,5,0,1 @ F,0,0,1,0,5,0,1" /><symbol
       id="Trachéotomie"
       style="stroke-width:0.276163"><g
         id="g11259"
         title="Trachéotomie"
         transform="matrix(3.6210616,0,0,3.6210616,4.2515658,2.4749691)"><path
           d="m 14.679558,10.289063 0.03125,7.408203 c 3.142892,-0.01273 8.90033,0.09442 14.074348,2.777343 5.174019,2.682927 9.580078,7.372928 9.580078,19.148438 h 7.408203 c 0,-13.854103 -6.383121,-21.993724 -13.578125,-25.724609 -7.195003,-3.730886 -14.328769,-3.622285 -17.515754,-3.609375 z"
           id="path1425"
           sodipodi:nodetypes="ccsccsc"
           style="stroke-width:0.276163" /><rect
           y="8.7191467"
           x="1.5874996"
           height="10.546699"
           width="11.333741"
           id="rect843-8"
           style="stroke:none;stroke-width:0.277463;stroke-linecap:round;stroke-linejoin:round;stroke-miterlimit:4;stroke-dasharray:none;stroke-opacity:1"
           ry="0.2590259"
           rx="0.2590259" /><title
           id="title8950">Canule de trachéotomie</title></g><title
         id="title2521">Canule de trachéotomie</title><title
         id="title11257">Canule de trachéotomie</title></symbol><symbol
       id="Poumons"><g
         id="g883_transform"
         transform="matrix(3.9382163,0,0,3.9724197,-889.89745,-518.43891)"><title
           id="title654">Poumons</title><path
           sodipodi:nodetypes="ccc"
           inkscape:connector-curvature="0"
           id="path2793"
           d="m 246.72036,167.41647 c -4.07482,-3.27206 -8.72794,-5.38755 -17.27416,0.28317 3.48171,-44.27494 18.86273,-32.77851 17.27416,-0.28317 z" /><path
           d="m 250.9148,167.41647 c 4.07482,-3.27206 8.72794,-5.38755 17.27416,0.28317 -3.48171,-44.27494 -18.86273,-32.77851 -17.27416,-0.28317 z"
           id="path2795"
           inkscape:connector-curvature="0"
           sodipodi:nodetypes="ccc" /></g><title
         id="title658">Poumons</title></symbol><symbol
       id="CourbePV"><title
         id="title2192">Courbe pression - volume</title><path
         id="path1409"
         d="m 48.496094,76.847786 -11.21601,24.729514 7.473449,-0.87921 0.02467,17.69927 h 7.435778 l 0.02467,-17.69927 7.473447,0.87921 z M 165.37305,17.681468 c -40.76284,0.04119 -94.086609,9.195936 -137.952791,43.132274 -1.254438,0.970527 -1.652295,3.049475 -0.888672,4.643633 0.763754,1.594062 2.399779,2.099633 3.654297,1.129263 C 65.068339,39.60042 112.82801,31.025592 144.8418,28.08809 110,45 103.55816,76.955289 86.316406,98.005796 63.589246,125.75345 41.368625,151.96349 10.533203,154.29288 c -1.4665987,0.11005 -2.5851658,1.71032 -2.498047,3.57394 0.086561,1.86366 1.3459331,3.28507 2.8125,3.17436 C 43.883753,158.54554 67.23699,130.67168 90,102.88026 c 22.76301,-27.791438 27.99063,-59.237781 75.72266,-78.470351 3.27688,-0.568321 2.95763,-6.712549 -0.34961,-6.728441 z"
         sodipodi:nodetypes="cccccccccccccscccscc" /><title
         id="title2196">Courbe pression - volume</title></symbol><symbol
       id="Stéthoscope"><title
         id="title2653">Stéthoscope</title><path
         id="ellipse2023"
         d="m 67.345347,14.67637 a 3.8158706,4.7698382 80 0 0 5.359993,2.929625 3.8158706,4.7698382 80 0 0 4.034755,-4.586173 3.8158706,4.7698382 80 0 0 -5.359993,-2.929625 3.8158706,4.7698382 80 0 0 -4.034755,4.586173 z m 12.939836,-4.046308 c 1.091074,-0.02399 2.09801,0.106908 3.024003,0.398729 1.851988,0.583642 3.302786,1.830419 4.289128,3.422732 1.972683,3.184624 2.386371,7.660027 2.28431,12.729505 -0.204131,10.138957 -2.744519,22.855765 -2.744519,31.158595 l -2.861909,10e-7 c 0,-8.868569 2.551117,-21.517716 2.746384,-31.216355 0.09763,-4.849321 -0.4609,-8.909576 -1.857628,-11.164403 -0.698366,-1.127413 -1.532956,-1.827451 -2.716573,-2.200461 -1.183617,-0.373009 -2.79305,-0.395773 -4.961748,0.175143 l -0.730382,-2.768742 c 1.261775,-0.332166 2.43786,-0.510749 3.528934,-0.534744 z M 52.554695,14.67637 a 4.7698382,3.8158706 9.9999996 0 1 -5.359992,2.929625 4.7698382,3.8158706 9.9999996 0 1 -4.034755,-4.586172 4.7698382,3.8158706 9.9999996 0 1 5.359993,-2.929626 4.7698382,3.8158706 9.9999996 0 1 4.034754,4.586173 z M 39.61486,10.630063 c -1.091074,-0.02399 -2.09801,0.106907 -3.024003,0.398729 -1.851988,0.583641 -3.302787,1.830419 -4.289129,3.422732 -1.972683,3.184624 -2.38637,7.660026 -2.284304,12.729505 0.204132,10.138957 2.74452,22.855764 2.74452,31.158595 l 2.861903,10e-7 c 0,-8.86857 -2.551117,-21.517716 -2.746383,-31.216356 -0.09764,-4.849321 0.460898,-8.909576 1.857628,-11.164402 0.698365,-1.127414 1.532955,-1.827451 2.716572,-2.200461 1.183617,-0.37301 2.793051,-0.395773 4.961749,0.175143 l 0.730381,-2.768743 C 41.88202,10.83264 40.705933,10.654057 39.61486,10.630063 Z m -9.714818,49.134375 c 3e-6,8.01332 2.535168,15.122819 7.831105,19.977423 4.441454,4.071334 10.594224,6.283169 17.926021,6.923719 v 49.41627 c -10e-7,7.53302 4.245732,15.56195 11.020934,22.19278 6.775205,6.63086 16.422025,11.75512 27.707916,11.72524 11.273292,-0.0298 20.890382,-5.15054 27.633382,-11.77182 6.74301,-6.62127 10.95213,-14.63906 10.90915,-22.17042 -0.0649,-11.36504 0,-53.390517 0,-53.390517 l -8.58571,-0.01491 c 0,0 -0.0658,41.936187 0,53.453867 0.0223,3.90998 -2.9239,10.67764 -8.33977,15.99573 -5.41585,5.31808 -12.96154,9.28937 -21.63941,9.31236 -8.665266,0.023 -16.230927,-3.94174 -21.680406,-9.27511 -5.449477,-5.33335 -8.440378,-12.14263 -8.440378,-16.0572 l 10e-7,-49.416269 c 7.331796,-0.64055 13.484565,-2.852385 17.926021,-6.923719 5.295934,-4.854606 7.831105,-11.964103 7.831105,-19.977424 l -8.585709,1e-6 c 0,6.296179 -1.757692,10.634317 -5.047458,13.649936 -3.289765,3.015618 -8.546589,4.952433 -16.416814,4.952433 -7.870226,0 -13.127049,-1.936815 -16.416814,-4.952434 C 40.243442,70.398755 38.485749,66.060618 38.48575,59.764438 Z M 128.63569,38.346745 c -11.82048,1e-6 -21.46427,9.643794 -21.46427,21.464273 0,11.820481 9.64379,21.464272 21.46427,21.464271 11.82048,0 21.46427,-9.643791 21.46427,-21.464271 0,-11.82048 -9.64379,-21.464273 -21.46427,-21.464273 z m 0,5.723807 c 8.72711,-10e-7 15.74047,7.013357 15.74047,15.740466 0,8.727108 -7.01336,15.740465 -15.74047,15.740466 -8.7271,0 -15.74046,-7.013357 -15.74046,-15.740466 0,-8.727109 7.01336,-15.740466 15.74046,-15.740466 z" /><title
         id="title2657">Stéthoscope</title></symbol><symbol
       id="Nébuliseur"><title
         id="title3178">Nébuliseur</title><path
         id="rectCorps"
         style="stroke:none;stroke-width:2.76625;stroke-linecap:round;stroke-linejoin:round;stroke-miterlimit:4;stroke-dasharray:none;stroke-opacity:1;paint-order:stroke fill markers"
         d="m 123.26092,102.05564 c 1.9e-4,24.24628 0,48.3028 0,71.94436 h -7.85851 l -4.23639,-11.99072 h -8.82337 L 98.536348,174 H 83.693581 L 79.659694,162.00928 H 68.531532 L 64.24196,174 h -7.502963 v -71.94436 z"
         sodipodi:nodetypes="ccccccccccccc" /><rect
         style="stroke:none;stroke-width:2.39915;stroke-linecap:round;stroke-linejoin:round;stroke-miterlimit:4;stroke-dasharray:none;stroke-opacity:1;paint-order:stroke fill markers"
         id="rectCouvercle"
         width="81.816231"
         height="15"
         x="49.091885"
         y="84"
         ry="0.85039252"
         rx="0.85039252" /><rect
         style="stroke:none;stroke-width:2.81329;stroke-linecap:round;stroke-linejoin:round;stroke-miterlimit:4;stroke-dasharray:none;stroke-opacity:1;paint-order:stroke fill markers"
         id="rectConnecteur22"
         width="30"
         height="24"
         x="75"
         y="57"
         ry="1.360628"
         rx="1.360628" /><g
         id="gGoutelettes"
         transform="matrix(1.1428247,0,0,1.2288976,-53.935247,3.1600764)"
         style="stroke:none;stroke-width:0;stroke-miterlimit:4;stroke-dasharray:none;stroke-opacity:1;paint-order:stroke fill markers"><path
           d="m 126.71963,30.122185 c 7.57693,-6.912413 -0.98377,-10.208989 0,0 z"
           id="path5838"
           sodipodi:nodetypes="cc"
           class="class1" /><path
           d="m 140.22115,36.610508 c 8.14826,-6.228741 -0.094,-10.25586 0,0 z"
           id="path6513"
           sodipodi:nodetypes="cc"
           class="class1" /><path
           d="m 108.42665,27.579695 c 4.58675,-9.173496 -4.58674,-9.173496 0,0 z"
           id="path6515"
           sodipodi:nodetypes="cc"
           class="class1" /><path
           d="m 122.43699,21.015567 c 4.5827,-9.175519 -4.59079,-9.171473 0,0 z"
           id="path12174"
           sodipodi:nodetypes="cc"
           class="class1" /><path
           d="m 129.84785,17.036386 c 8.02149,-6.391158 -0.30003,-10.2518918 0,0 z"
           id="path12176"
           sodipodi:nodetypes="cc"
           class="class1" /><path
           d="m 113.43842,15.635683 c 4.58675,-9.1734986 -4.58674,-9.1734986 0,0 z"
           id="path12178"
           sodipodi:nodetypes="cc"
           class="class1" /><path
           d="m 118.65891,29.875457 c 2.60879,-9.918952 -6.36989,-8.038392 0,0 z"
           id="path12180"
           sodipodi:nodetypes="cc"
           class="class1" /><path
           d="m 115.00159,38.30784 c -0.61451,-10.237855 -8.559,-5.651108 0,0 z"
           id="path12182"
           sodipodi:nodetypes="cc"
           class="class1" /><path
           d="m 104.09496,16.694958 c 2.53134,-9.9389896 -6.432395,-7.9884641 0,0 z"
           id="path12184"
           sodipodi:nodetypes="cc"
           class="class1" /><path
           d="m 135.45348,27.462626 c 8.55899,-5.651107 0.61451,-10.237854 0,0 z"
           id="path12186"
           sodipodi:nodetypes="cc"
           class="class1" /><path
           d="m 145.96321,25.787083 c 8.85415,-5.17642 1.17133,-10.189218 0,0 z"
           id="path12188"
           sodipodi:nodetypes="cc"
           class="class1" /><path
           d="m 122.72439,9.1910732 c 4.58675,-9.17349479 -4.58673,-9.17349479 0,0 z"
           id="path12190"
           sodipodi:nodetypes="cc"
           class="class1" /><path
           d="m 122.64395,41.370348 c 5.42099,-8.706562 -3.71265,-9.560725 0,0 z"
           id="path12192"
           sodipodi:nodetypes="cc"
           class="class1" /><path
           d="m 131.68752,40.215703 c 7.61446,-6.871054 -0.92817,-10.214205 0,0 z"
           id="path12194"
           sodipodi:nodetypes="cc"
           class="class1" /><path
           d="m 139.96408,16.594612 c 8.81251,-5.246987 1.08992,-10.1981973 0,0 z"
           id="path12196"
           sodipodi:nodetypes="cc"
           class="class1" /></g><title
         id="title3182">Nébuliseur</title></symbol><symbol
       id="INH"
       style="display:inline;stroke-width:2.80957"><g
         id="g938_transform"
         transform="matrix(1.345229,0,0,1.345229,-49.542615,-112.97462)"><title
           id="title3663">inh - inhalothérapeute</title><text
           id="text928"
           y="166.92291"
           x="103.06094"
           style="font-style:normal;font-variant:normal;font-weight:bold;font-stretch:normal;font-size:71.0892px;line-height:1.25;font-family:sans-serif;-inkscape-font-specification:'sans-serif Bold';text-align:center;letter-spacing:0px;word-spacing:0px;text-anchor:middle;display:inline;fill:#000000;fill-opacity:1;stroke:none;stroke-width:1.59031"
           xml:space="preserve"><tspan
             style="font-style:normal;font-variant:normal;font-weight:bold;font-stretch:normal;font-family:'Fira Mono';-inkscape-font-specification:'Fira Mono Bold';text-align:center;text-anchor:middle;fill:#000000;stroke:none;stroke-width:1.59031"
             y="166.92291"
             x="103.06094"
             id="tspan926"
             sodipodi:role="line">inh</tspan></text><text
           id="text948"
           y="177.2186"
           x="108.65765"
           style="font-style:normal;font-variant:normal;font-weight:bold;font-stretch:normal;font-size:12.9552px;line-height:1.25;font-family:sans-serif;-inkscape-font-specification:'sans-serif Bold';text-align:center;letter-spacing:0px;word-spacing:0px;text-anchor:middle;display:inline;fill:#000000;fill-opacity:1;stroke:none;stroke-width:1.00655;enable-background:new"
           xml:space="preserve"
           transform="scale(0.9526392,1.0497154)"><tspan
             style="font-style:normal;font-variant:normal;font-weight:bold;font-stretch:normal;font-family:'Fira Mono';-inkscape-font-specification:'Fira Mono Bold';text-align:center;text-anchor:middle;fill:#000000;stroke:none;stroke-width:1.00655"
             y="177.2186"
             x="108.65765"
             id="tspan946"
             sodipodi:role="line">inhalothérapeute</tspan></text></g><title
         id="title3667">inh - inhalothérapeute</title></symbol><symbol
       id="MasqueAérosol"><title
         id="title4343">Masque aérosol</title><path
         id="path252"
         d="m 120,11.189802 c -0.0329,-7.17e-4 -0.0662,9.49e-4 -0.0995,0.0046 -0.82244,0.09021 -1.75479,1.51841 -2.80545,4.529573 -6.28808,4.999452 -14.68938,11.235146 -21.54622,15.89639 4.60033,4.065722 8.08738,9.83201 10.92541,16.140942 1.12877,2.509567 1.58488,3.890637 -0.92455,5.019697 -2.5097,1.128845 -5.45933,0.0095 -6.588271,-2.500149 C 95.928743,43.539201 92.081731,38.448026 88.418568,36.007493 67.644918,50.427671 48.593293,66.082274 45.769169,92.292737 44.772471,101.543 44.753411,110.9486 42.613487,119.41861 c 9.713635,0.34259 19.405855,0 29.129295,0 2.699989,0 1.061985,22.17054 11.398195,39.55258 5.680983,9.55352 22.238143,6.76248 33.954093,6.5835 3.38732,14.61658 6.44919,-22.34594 7.56102,-63.74689 h 12.73042 V 83.570555 H 125.01197 C 125.46194,46.472289 124.18136,11.280967 120,11.189805 Z M 83.678891,74.744218 c 5.564684,5.9e-5 10.075725,6.082083 10.075725,13.584631 0,7.502548 -4.511041,13.584581 -10.075725,13.584641 -5.564682,-6e-5 -10.075725,-6.082093 -10.075724,-13.584641 10e-7,-7.502548 4.511044,-13.584572 10.075724,-13.584631 z m 44.384519,12.387337 h 5.5076 v 11.116778 h -5.5076 z"
         sodipodi:nodetypes="csccccccscsscccccscccsccccccc" /><rect
         id="rect688"
         width="25.416399"
         height="26.466879"
         x="44.997353"
         y="122.45978" /><rect
         id="rect690"
         width="28.541876"
         height="4.8230772"
         x="43.416126"
         y="151.18382" /><title
         id="title4347">Masque aérosol</title></symbol><symbol
       id="CourbeDébitTemps"><title
         id="title4677">Courbe débit - temps</title><path
         d="M 19.429212,15.807207 A 6.0847744,6.0847744 0 0 0 15,21.661149 v 63.204869 a 6.0841659,6.0841659 0 0 0 6.082786,6.082787 6.0841659,6.0841659 0 0 0 6.082787,-6.082787 V 40.632945 C 47.876296,68.841479 67.241877,81.44389 85.409727,88.785874 v 69.538636 a 6.0847744,6.0847744 0 0 0 11.833383,2.00791 c 9.86412,-28.26053 28.97373,-52.10845 64.4229,-70.040615 a 6.0841659,6.0841659 0 0 0 2.67967,-8.171897 6.0841659,6.0841659 0 0 0 -8.17189,-2.687058 c -27.34407,13.832155 -46.09508,31.78524 -58.59111,52.31639 V 84.866018 A 6.0847744,6.0847744 0 0 0 93.640683,79.1671 C 72.31663,71.128191 51.771074,60.046679 26.272349,18.479498 a 6.0847744,6.0847744 0 0 0 -6.843137,-2.672291 z"
         id="path828" /><title
         id="title4681">Courbe débit - temps</title></symbol><symbol
       id="TubeEndotrachéal"><title
         id="title5020">Tube endotrachéal</title><use
         xlink:href="#symbol23633"
         id="use23637" /><g
         id="symbol23633"><path
           id="ellipse1865"
           style="display:inline;opacity:1;stroke:#000000;stroke-width:0;stroke-linecap:round;stroke-linejoin:round;paint-order:stroke fill markers"
           d="m 51.722779,166.96629 c -34.481853,-111.31086 -17.240926,-55.65543 0,0 z M 130.60742,31.298828 c 0,62.437735 -22.79697,95.032902 -46.552732,112.732422 1.193431,1.21684 2.27704,2.71507 3.210937,4.53711 0.653977,1.27591 1.125067,2.52382 1.445313,3.74023 C 114.99789,133.14857 140.0293,96.878668 140.0293,31.298828 Z M 49.097656,161.14258 c -0.03144,0.009 -0.06432,0.0186 -0.0957,0.0273 -9.747811,2.73156 -17.320483,3.23828 -18.34375,3.23828 v 9.42383 c 2.825396,0 10.218718,-0.61294 20.738281,-3.54687 -0.555676,-0.71094 -1.034249,-1.49806 -1.412109,-2.375 -0.929621,-2.1575 -1.175955,-4.45406 -0.886719,-6.76758 z M 144.07569,4.1695018 H 126.33596 V 19.876822 h 17.73973 z m 5.26673,19.2159962 h -28.27319 v 4.830497 h 28.27319 z"
           sodipodi:nodetypes="ccccsccccccccscccccccccccc" /><path
           d="M 84.388634,149.91581 C 93.95488,168.57963 59.023081,180.22356 52.984069,166.20804 46.945057,152.19251 74.822391,131.252 84.388634,149.91581 Z"
           style="display:inline;opacity:1;stroke:#000000;stroke-width:0;stroke-linecap:round;stroke-linejoin:round;paint-order:stroke fill markers"
           id="path11964"
           sodipodi:nodetypes="sss" /></g><title
         id="title5024">Tube endotrachéal</title></symbol><symbol
       id="RouletteAlpha"><path
         id="path1053"
         d="M 90 10 L 102.99023 32.5 L 77.009766 32.5 L 90 10 z M 90 10 A 79.999992 79.999992 0 0 0 51.890625 19.890625 L 54.308594 24.080078 L 56.808594 28.410156 L 53.34375 30.410156 L 50.84375 26.080078 L 48.378906 21.808594 A 79.999992 79.999992 0 0 0 21.845703 48.308594 L 26.121094 50.777344 L 30.451172 53.277344 L 28.451172 56.742188 L 24.121094 54.242188 L 19.929688 51.822266 A 79.999992 79.999992 0 0 0 10.144531 87.992188 L 15.060547 87.992188 L 20.060547 87.992188 L 20.060547 91.992188 L 15.060547 91.992188 L 10.142578 91.992188 A 79.999992 79.999992 0 0 0 19.917969 128.1582 L 24.087891 125.75195 L 28.417969 123.25195 L 30.417969 126.71484 L 26.087891 129.21484 L 21.835938 131.66992 A 79.999992 79.999992 0 0 0 48.341797 158.16992 L 50.785156 153.9375 L 53.285156 149.60742 L 56.75 151.60742 L 54.25 155.9375 L 51.853516 160.08789 A 79.999992 79.999992 0 0 0 88 169.85742 L 88 165 L 88 160 L 92 160 L 92 165 L 92 169.95117 A 79.999992 79.999992 0 0 0 128.23438 160.25781 L 125.75977 155.97266 L 123.25977 151.64258 L 126.72266 149.64258 L 129.22266 153.97266 L 131.69727 158.25977 A 79.999992 79.999992 0 0 0 158.22852 131.74609 L 153.94727 129.27539 L 149.61719 126.77539 L 151.61719 123.31055 L 155.94727 125.81055 L 160.22852 128.2832 A 79.999992 79.999992 0 0 0 169.94922 92.060547 L 165.00781 92.060547 L 160.00781 92.060547 L 160.00781 88.060547 L 165.00781 88.060547 L 169.95312 88.060547 A 79.999992 79.999992 0 0 0 160.28516 51.816406 L 155.98047 54.300781 L 151.65039 56.800781 L 149.65039 53.335938 L 153.98047 50.835938 L 158.28906 48.349609 A 79.999992 79.999992 0 0 0 131.77734 21.792969 L 129.2832 26.113281 L 126.7832 30.443359 L 123.31836 28.443359 L 125.81836 24.113281 L 128.31445 19.789062 A 79.999992 79.999992 0 0 0 90 10 z M 128.98633 20.167969 L 131.56641 21.658203 A 79.999992 79.999992 0 0 0 128.98633 20.167969 z M 90 55 A 34.999992 34.999992 0 0 1 125 90 A 34.999992 34.999992 0 0 1 90 125 A 34.999992 34.999992 0 0 1 55 90 A 34.999992 34.999992 0 0 1 90 55 z M 10.060547 89.154297 A 79.999992 79.999992 0 0 0 10 90 A 79.999992 79.999992 0 0 0 10.060547 90.845703 L 10.060547 89.154297 z "><title
           id="title5782">Roulette alpha</title></path><title
         id="title5786">Roulette alpha</title></symbol><symbol
       id="HumidificateurChauffant"><title
         id="title4104">Humidificateur chauffant</title><path
         id="rect241"
         d="m 54.857422,10 v 15.653138 h -8.496094 v 38.57348 h 87.277342 v -38.57348 h -8.49609 V 10 H 108.67383 V 25.653138 H 71.326172 V 10 Z"
         style="stroke-width:0.999992" /><path
         id="rect239"
         d="M 31.666016,68.033203 V 170 H 148.33398 V 68.033203 Z m 15.392578,18.365235 a 6.7316527,6.7388024 0 0 1 6.730468,6.738281 6.7316527,6.7388024 0 0 1 -6.730468,6.738281 6.7316527,6.7388024 0 0 1 -6.732422,-6.738281 6.7316527,6.7388024 0 0 1 6.732422,-6.738281 z m 83.296876,0 a 6.7316527,6.7388024 0 0 1 6.73242,6.738281 6.7316527,6.7388024 0 0 1 -6.73242,6.738281 6.7316527,6.7388024 0 0 1 -6.73242,-6.738281 6.7316527,6.7388024 0 0 1 6.73242,-6.738281 z M 72.230469,87.105469 H 107.76953 V 110.05859 H 72.230469 Z m 58.125001,25.109371 a 6.7316527,6.7388024 0 0 1 6.73242,6.74024 6.7316527,6.7388024 0 0 1 -6.73242,6.73828 6.7316527,6.7388024 0 0 1 -6.73242,-6.73828 6.7316527,6.7388024 0 0 1 6.73242,-6.74024 z" /><title
         id="title4108">Humidificateur chauffant</title><title
         id="title757">Humidificateur chauffant</title></symbol><symbol
       id="Souflet"><path
         id="path4659"
         d="M 21.855469 25 A 5.2424742 5.2424742 0 0 0 17.740234 33.490234 L 30.902344 50.162109 L 17.740234 66.832031 A 5.2424742 5.2424742 0 0 0 17.740234 73.328125 L 30.902344 90 L 17.740234 106.67188 A 5.2424742 5.2424742 0 0 0 17.740234 113.16797 L 30.902344 129.83789 L 17.740234 146.50977 A 5.24195 5.24195 0 0 0 18.607422 153.87305 A 5.24195 5.24195 0 0 0 25.96875 153.00586 L 26.462891 152.37891 L 153.53711 152.37891 L 154.03125 153.00586 A 5.24195 5.24195 0 0 0 161.39258 153.87305 A 5.24195 5.24195 0 0 0 162.25977 146.50977 L 149.09766 129.83789 L 162.25977 113.16797 A 5.2424742 5.2424742 0 0 0 162.25977 106.67188 L 149.09766 90 L 162.25977 73.328125 A 5.2424742 5.2424742 0 0 0 162.25977 66.832031 L 149.09766 50.162109 L 162.25977 33.490234 A 5.2424742 5.2424742 0 0 0 158.14453 25 L 21.855469 25 z M 32.671875 35.484375 L 147.32812 35.484375 L 138.30469 46.914062 A 5.2424742 5.2424742 0 0 0 138.00586 47.541016 L 42.117188 47.541016 A 5.2424742 5.2424742 0 0 0 41.695312 46.914062 L 32.671875 35.484375 z M 42.117188 52.783203 L 138.00586 52.783203 A 5.2424742 5.2424742 0 0 0 138.30469 53.410156 L 149.39648 67.458984 L 30.603516 67.458984 L 41.695312 53.410156 A 5.2424742 5.2424742 0 0 0 42.117188 52.783203 z M 30.601562 72.701172 L 149.39844 72.701172 L 138.30469 86.751953 A 5.2424742 5.2424742 0 0 0 138.00586 87.378906 L 42.117188 87.378906 A 5.2424742 5.2424742 0 0 0 41.695312 86.751953 L 30.601562 72.701172 z M 42.117188 92.621094 L 138.00586 92.621094 A 5.2424742 5.2424742 0 0 0 138.30469 93.248047 L 149.39844 107.29883 L 30.601562 107.29883 L 41.695312 93.248047 A 5.2424742 5.2424742 0 0 0 42.117188 92.621094 z M 30.603516 112.54102 L 149.39648 112.54102 L 138.30469 126.58984 A 5.2424742 5.2424742 0 0 0 138.00586 127.2168 L 42.117188 127.2168 A 5.2424742 5.2424742 0 0 0 41.695312 126.58984 L 30.603516 112.54102 z M 42.117188 132.45898 L 138.00586 132.45898 A 5.2424742 5.2424742 0 0 0 138.30469 133.08594 L 149.39844 147.13672 L 30.601562 147.13672 L 41.695312 133.08594 A 5.2424742 5.2424742 0 0 0 42.117188 132.45898 z "><title
           id="title1">Souflet</title></path><title
         id="title2">Souflet</title></symbol><symbol
       id="Livre"><path
         id="pathLivre"
         d="m 32.699219,11.25 c -7.625536,0 -13.857422,6.233839 -13.857422,13.859375 V 137.86719 c 0,4.89868 2.578518,9.212 6.439453,11.67773 l 16.476562,16.72656 -0.05469,-0.0586 c 3.223743,3.45119 6.908652,5.1543 10.630859,5.1543 h 97.337899 c 7.62553,0 13.85742,-6.23384 13.85742,-13.85938 V 44.75 c 0,-3.759836 -1.50978,-7.200907 -3.95313,-9.697266 l 0.004,-0.0039 -0.0606,-0.06055 c -0.007,-0.0069 -0.0127,-0.01463 -0.0195,-0.02148 -6.30818,-6.329869 -12.65429,-12.621926 -18.98656,-18.9277 l -0.0176,0.01758 C 137.95083,13.120783 134.20657,11.25 130.03711,11.25 Z m 0,6 h 97.337891 c 4.40532,0 7.85742,3.45405 7.85742,7.859375 V 137.86719 c 0,4.40531 -3.45211,7.85742 -7.85742,7.85742 H 32.699219 c -1.339067,0 -2.569371,-0.35024 -3.565936,-1.09016 -1.117394,-0.90512 -2.233726,-1.80489 -3.490238,-3.41111 -0.388204,-0.53447 -0.801248,-1.88285 -0.801248,-3.35615 V 25.109375 c 0,-4.405326 3.452097,-7.859375 7.857422,-7.859375 z m 111.195311,10.630859 11.35352,11.31836 0.002,0.002 c 1.41192,1.419579 2.2793,3.353957 2.2793,5.548828 V 157.50786 c 0,1.05134 -0.20715,2.04222 -0.56641,2.95117 L 142.5645,143.74028 c 0.84369,-1.78711 1.33008,-3.77373 1.33008,-5.87304 z m -94.439452,8.992188 c -2.933239,0 -5.388672,2.455432 -5.388672,5.388672 v 16.287109 c 0,2.93324 2.455431,5.388672 5.388672,5.388672 h 69.492192 c 2.93323,0 5.38671,-2.455428 5.38671,-5.388672 V 42.261719 c 0,-2.933244 -2.45348,-5.388672 -5.38671,-5.388672 z m 0.611328,6 H 118.33398 V 57.9375 H 50.066406 Z m 0.113282,38.060547 v 20.568356 h 6 v -4.009762 c 2.687592,2.47695 6.150235,4.641122 10.773437,6.125002 l 0.298828,14.71093 5.085938,-5.72265 c 4.040341,-4.54473 8.681986,-7.34354 14.693359,-8.12891 l 2.660156,-0.34765 -0.136718,-7.322269 c 2.354126,2.122083 5.570872,4.331289 10.906252,6.632809 l 0.66797,14.15821 4.81054,-4.87891 c 4.22314,-4.28294 9.15995,-6.90321 14.87891,-8.30273 l -1.42774,-5.828129 c -4.63853,1.13513 -8.96263,3.091299 -12.875,5.867189 l -0.23632,-5.039064 -1.81641,-0.708985 C 94.000984,94.626338 93.253718,91.706367 88.388672,87.488281 l -5.091797,-4.414062 0.300781,16.064453 C 79.640744,100.048 76.089541,101.71389 72.962891,104.03711 L 72.863281,99.125 70.609375,98.583984 C 62.302676,96.595016 59.235328,92.705727 55.558594,87.925781 Z m 88.630862,67.640626 13.9375,16.18555 c -0.94075,0.39027 -1.97836,0.60742 -3.07617,0.60742 H 52.333984 c -2.150345,0 -3.778104,-0.60789 -6.246093,-3.25 l -0.02734,-0.0293 -10.208985,-10.36328 h 94.185544 c 3.32277,0 6.38019,-1.18417 8.77344,-3.15039 z"
         sodipodi:nodetypes="ssscccssssccccccssssssssccsssccsssccscssssssssscccccccccccccccccccccccccccccccccsssccsc"><title
           id="title3">Livre</title></path><title
         id="title4">Livre</title></symbol><symbol
       id="PoumonsAvecBronches"><path
         id="pathPoumonsAvecBronches"
         d="m 92.923828,76.039062 -5.847656,10.236329 41.263668,23.580079 5.84961,-10.236329 z M 84.105469,16.314453 V 77.736328 L 45.810547,99.619141 51.660156,109.85547 95.894531,84.578125 V 16.314453 Z m 42.966801,5.908203 c -1.73531,-0.07805 -3.49373,0.136138 -5.2461,0.701172 -7.00946,2.260135 -11.84301,8.787905 -15.62304,18.433594 C 98.643058,60.6488 94.528627,95.061737 95.871094,152.24805 a 5.8955394,5.8955394 0 0 0 11.101566,2.62304 c 3.58888,-6.76896 11.12908,-9.41557 20.9707,-8.25195 9.84162,1.16362 20.99886,6.66503 28.36523,15.06055 a 5.8955394,5.8955394 0 0 0 10.18946,-2.63086 c 5.50662,-25.24542 4.03935,-52.59426 -1.07227,-76.123049 -5.11162,-23.528787 -13.44161,-43.12819 -24.13672,-53.654297 -4.01066,-3.947289 -9.01089,-6.814682 -14.21679,-7.048828 z m -0.22852,11.728516 c 1.51261,0.06656 3.41767,1.011999 6.17383,3.724609 7.34977,7.233627 16.08247,25.639968 20.88672,47.753906 4.09766,18.861543 5.60752,40.487563 2.85351,60.753903 -8.24836,-6.23094 -17.93953,-10.15137 -27.42969,-11.27343 -7.62268,-0.90127 -15.40032,0.21738 -21.82421,3.64648 -0.34304,-48.336425 3.90975,-78.184999 9.67578,-92.898437 3.14505,-8.02537 6.53109,-10.954389 8.26562,-11.513672 0.43364,-0.13982 0.89424,-0.215545 1.39844,-0.193359 z M 52.927734,22.222656 C 47.721825,22.456802 42.721605,25.324194 38.710937,29.271484 28.015825,39.797591 19.685842,59.396994 14.574219,82.925781 9.4625958,106.45457 7.9953316,133.80341 13.501953,159.04883 a 5.8955394,5.8955394 0 0 0 10.189453,2.63086 c 7.366379,-8.39553 18.523611,-13.89693 28.365235,-15.06055 9.841624,-1.16362 17.381818,1.48299 20.970703,8.25195 a 5.8955394,5.8955394 0 0 0 11.101562,-2.62304 C 85.471373,95.061736 81.356943,60.6488 73.796875,41.357422 70.016841,31.711733 65.183292,25.183963 58.173828,22.923828 56.421462,22.358795 54.663037,22.144608 52.927734,22.222656 Z m 0.228516,11.728516 c 0.504203,-0.02219 0.964805,0.05354 1.398437,0.193359 1.734532,0.559283 5.120576,3.488302 8.265625,11.513672 5.766026,14.713437 10.018813,44.562011 9.675782,92.898437 -6.423891,-3.4291 -14.201531,-4.54775 -21.824219,-3.64648 -9.490159,1.12206 -19.181326,5.04249 -27.429688,11.27343 -2.754006,-20.26634 -1.244149,-41.89236 2.853516,-60.753903 4.804248,-22.113938 13.53695,-40.522232 20.886719,-47.755859 2.756163,-2.71261 4.661218,-3.656099 6.173828,-3.722656 z"><title
           id="title5">Poumons avec bronches</title></path><title
         id="title6">Poumons avec bronches</title></symbol><symbol
       id="Menu"><path
         id="pathMenu"
         transform="scale(-1)"
         d="M -170.00002,-135.71428 H -9.9999695 v 11.42857 H -170.00002 Z m 0,39.999963 H -9.9999695 v 11.428565 H -170.00002 Z M -9.9999809,-55.714348 H -170 v 11.428565 H -9.9999809 Z"><title
           id="title7">Menu</title></path><title
         id="title8">Menu</title></symbol><symbol
       id="DébitConstant"><path
         d="M 20,14.615234 A 5.3851887,5.3851887 0 0 0 14.615234,20 V 90 A 5.3846502,5.3846502 0 0 0 20,95.384766 5.3846502,5.3846502 0 0 0 25.384766,90 V 25.384766 H 84.615234 V 160.00195 a 5.3851887,5.3851887 0 0 0 10.101563,2.59766 C 111.42689,132.263 126.42039,109.16958 161.99219,95.003906 a 5.3846502,5.3846502 0 0 0 3.01172,-6.996094 5.3846502,5.3846502 0 0 0 -6.9961,-3.009765 C 127.03992,97.330314 109.79687,116.91923 95.384766,140.12891 V 20 A 5.3851887,5.3851887 0 0 0 90,14.615234 Z"
         id="pathD__bitConstant"><title
           id="title9">Débit constant</title></path><title
         id="title10">Débit constant</title></symbol><symbol
       id="simvent.js"><path
         d="M 16.628906,10.074219 A 5.7149713,5.7149713 0 0 0 9.9980469,15.712891 V 90 A 5.7143998,5.7143998 0 0 0 15.712891,95.714844 5.7143998,5.7143998 0 0 0 21.427734,90 V 35.041016 C 38.694999,60.255874 58.708241,81.05243 84.285156,93.474609 v 70.812501 a 5.7149713,5.7149713 0 0 0 10.720703,2.75781 C 112.73915,134.85069 128.65042,110.34174 166.40039,95.308594 a 5.7143998,5.7143998 0 0 0 3.19531,-7.421875 5.7143998,5.7143998 0 0 0 -7.42187,-3.195313 C 129.30985,97.778803 111.00941,118.56655 95.714844,143.19727 V 90 A 5.7149713,5.7149713 0 0 0 92.332031,84.783203 C 62.726446,71.548782 40.429241,45.530211 20.601562,12.755859 a 5.7149713,5.7149713 0 0 0 -3.972656,-2.68164 z"
         id="patSimventJs"><title
           id="title11">simvent.js</title></path><title
         id="title12">simvent.js</title></symbol><symbol
       id="Carnet"><path
         id="pathCarnet"
         d="M 106.60019,134.54455 170,70 155.00187,55.146417 92.435249,119.40428 90.521985,134.24124 Z m -3.01818,-5.3807 -6.82946,-0.12788 0.82655,-6.4227 58.34191,-59.917827 6.56492,6.500772 z M 31.505859,111.07031 v 5.28516 h 68.496571 v -5.28516 z m 0,-41.794919 v 5.285156 h 89.878911 v -5.285156 z m 0,62.691409 v 5.28515 h 48.535157 v -5.28515 z m 0,-83.587894 v 5.285156 h 89.878911 v -5.285156 z m 0,41.792969 v 5.287109 H 119.38477 V 90.171875 Z M 33.522203,35.224568 V 11.116829 h -5.284612 v 24.107739 z m 14.380908,0 V 11.116829 h -5.284612 v 24.107739 z m 14.380896,0 V 11.116829 H 56.99939 v 24.107739 z m 14.380901,0 V 11.116829 H 71.3803 v 24.107739 z m 14.380903,0 V 11.116829 h -5.284608 v 24.107739 z m 14.380899,0 V 11.116829 h -5.2846 v 24.107739 z m 14.38091,0 V 11.116829 h -5.28793 V 35.224568 Z M 24.474609,20.146484 c -7.835392,0 -14.226562,6.39117 -14.226562,14.226563 V 154.6582 c 0,7.8354 6.39117,14.22461 14.226562,14.22461 H 128.41602 c 7.83539,0 14.22656,-6.38921 14.22656,-14.22461 V 89.859375 l -5.28516,5.380859 V 154.6582 c 0,4.99855 -3.94287,8.93946 -8.9414,8.93946 H 24.474609 c -4.998543,0 -8.939453,-3.94091 -8.939453,-8.93946 V 34.373047 c 0,-4.998544 3.94091,-8.941406 8.939453,-8.941406 H 128.41602 c 4.99853,0 8.9414,3.942862 8.9414,8.941406 v 39.371094 l 5.28516,-5.427735 V 34.373047 c 0,-7.835393 -6.39117,-14.226563 -14.22656,-14.226563 z"><title
           id="title13">Carnet</title></path><title
         id="title14">Carnet</title></symbol><symbol
       id="Sliders"><path
         id="pathSliders"
         transform="scale(-1)"
         d="m -72.857132,-153.5228 h 62.8571625 v 11.42857 H -72.857132 Z m -22.857147,23.5232 h 11.428578 v -40.00056 H -95.714279 Z M -170,-153.5228 h 62.85715 v 11.4282 H -170 Z m 51.42857,57.808795 H -9.9999695 v 11.428566 H -118.57143 Z m -22.85716,28.571213 h 11.42858 v -45.714578 h -11.42858 z m -28.57144,-28.571213 h 17.14287 v 11.428194 h -17.14287 z m 108.571475,56.799042 H -170 v 11.428565 H -61.428555 Z M -38.5714,-9.9996958 H -49.999978 V -55.714272 H -38.5714 Z M -9.9999714,-38.914963 H -27.142832 v 11.428193 h 17.1428606 z"><title
           id="title15">Sliders</title></path><title
         id="title16">Sliders</title></symbol><symbol
       id="Télécharger"><path
         id="pathT__l__charger"
         transform="rotate(-90)"
         d="M -11.785156,84.285156 H -111.33789 L -83.066406,60.052734 -90.503906,51.375 -135.56445,90 l 45.060544,38.625 7.4375,-8.67773 -28.271484,-24.232426 h 99.552734 z M -116.78528,169.99998 h -51.42907 v -11.42856 h 51.42907 z M -168.21396,170 V 10 h 11.42856 v 160 z m 51.42871,-148.571438 h -51.42907 V 10.000001 h 51.42907 z"><title
           id="title17">Télécharger</title></path><title
         id="title18">Télécharger</title></symbol><symbol
       id="Laboratoire"><path
         style="color:#000000;fill:#000000;stroke-linejoin:round;-inkscape-stroke:none"
         d="M 8.6484375,1.3671875 A 1.0029103,1.0029103 0 0 0 7.6464844,2.3710938 V 6.7675781 A 1.0029103,1.0029103 0 0 0 8.6484375,7.7714844 H 10.25 V 13.671875 L 4.1347656,23.980469 c -1.5991206,2.696168 0.4004298,6.205078 3.5351563,6.205078 H 24.525391 c 3.174051,0 5.24496,-3.48507 3.728515,-6.273438 L 22.695312,13.691406 V 7.7714844 h 1.601563 A 1.0029103,1.0029103 0 0 0 25.298828,6.7675781 V 2.3710938 A 1.0029103,1.0029103 0 0 0 24.296875,1.3671875 Z M 9.6523438,3.3730469 H 23.292969 V 5.765625 h -1.59961 a 1.0029103,1.0029103 0 0 0 -1.003906,1.0019531 v 7.1796879 a 1.0029103,1.0029103 0 0 0 0.123047,0.478515 l 5.679687,10.445313 c 0.833081,1.531829 -0.223087,3.308594 -1.966796,3.308593 H 7.6699219 c -1.679459,10e-7 -2.6653376,-1.731283 -1.8085938,-3.175781 L 12.115234,14.458984 a 1.0029103,1.0029103 0 0 0 0.140625,-0.511718 V 6.7675781 A 1.0029103,1.0029103 0 0 0 11.251953,5.765625 H 9.6523438 Z"
         id="path4533"><title
           id="title19">Laboratoire</title></path><title
         id="title20">Laboratoire</title></symbol><symbol
       id="Engrenage"><path
         d="M 18.597656,0.67578125 A 1.0346335,1.0346335 0 0 0 17.537109,0.9375 l -1.867187,1.9140625 c -0.371268,0.011802 -0.74049,0.038379 -1.109375,0.082031 L 12.376953,1.3417969 A 1.0346335,1.0346335 0 0 0 11.296875,1.2558594 L 7.1972656,3.3457031 A 1.0346335,1.0346335 0 0 0 6.6308594,4.28125 l 0.033203,2.6425781 C 6.3963168,7.2055334 6.1417401,7.4981011 5.9003906,7.8027344 L 3.265625,8.2148438 a 1.0346335,1.0346335 0 0 0 -0.8222656,0.703125 l -1.421875,4.3789062 a 1.0346335,1.0346335 0 0 0 0.2617187,1.060547 l 1.890625,1.841797 c 0.01224,0.387733 0.040918,0.773128 0.087891,1.158203 L 1.6875,19.517578 a 1.0346335,1.0346335 0 0 0 -0.085937,1.080078 l 2.0898438,4.101563 A 1.0346335,1.0346335 0 0 0 4.625,25.263672 l 2.6738281,-0.03125 c 0.2711737,0.254856 0.5516458,0.497941 0.84375,0.728515 l 0.4179688,2.671875 a 1.0346335,1.0346335 0 0 0 0.703125,0.824219 l 4.3789061,1.419922 a 1.0346335,1.0346335 0 0 0 1.060547,-0.261719 l 1.894531,-1.947265 c 0.347291,-0.0129 0.693931,-0.0393 1.039063,-0.08008 l 2.228515,1.625 a 1.0346335,1.0346335 0 0 0 1.078125,0.08594 l 4.101563,-2.091797 a 1.0346335,1.0346335 0 0 0 0.564453,-0.933594 l -0.03516,-2.751953 c 0.227488,-0.24351 0.446255,-0.493581 0.654297,-0.753906 l 2.746093,-0.431641 a 1.0346335,1.0346335 0 0 0 0.824219,-0.701171 l 1.419922,-4.38086 a 1.0346335,1.0346335 0 0 0 -0.261719,-1.058594 l -1.972656,-1.921874 c -0.01222,-0.330558 -0.03674,-0.659625 -0.07422,-0.988282 l 1.644531,-2.251953 a 1.0346335,1.0346335 0 0 0 0.08594,-1.078125 L 28.548828,6.8535156 A 1.0346335,1.0346335 0 0 0 27.615234,6.2890625 l -2.722656,0.03125 c -0.253633,-0.2396661 -0.514955,-0.469085 -0.787109,-0.6875 L 23.679687,2.9199219 A 1.0346335,1.0346335 0 0 0 22.976562,2.0957031 Z m -0.02734,2.16601565 3.164063,1.0273437 0.384766,2.4511719 a 1.0346335,1.0346335 0 0 0 0.404296,0.6699219 c 0.445446,0.3322393 0.864333,0.697472 1.253907,1.09375 a 1.0346335,1.0346335 0 0 0 0.75,0.3085937 l 2.470703,-0.027344 1.509765,2.9628906 -1.490234,2.042969 a 1.0346335,1.0346335 0 0 0 -0.1875,0.763672 c 0.08002,0.533145 0.120842,1.070257 0.121094,1.609375 a 1.0346335,1.0346335 0 0 0 0.3125,0.742187 l 1.789062,1.742188 -1.027343,3.162109 -2.490235,0.390625 a 1.0346335,1.0346335 0 0 0 -0.669922,0.40625 c -0.322558,0.434232 -0.677094,0.843078 -1.060547,1.224609 A 1.0346335,1.0346335 0 0 0 23.5,24.158203 l 0.0332,2.498047 -2.962891,1.509766 -2.017578,-1.470704 a 1.0346335,1.0346335 0 0 0 -0.767578,-0.185546 c -0.548711,0.08496 -1.102954,0.12659 -1.658203,0.126953 a 1.0346335,1.0346335 0 0 0 -0.740234,0.3125 l -1.716797,1.761718 -3.164063,-1.02539 -0.378906,-2.416016 A 1.0346335,1.0346335 0 0 0 9.7167969,24.595703 C 9.2511897,24.254622 8.8139366,23.877292 8.4082031,23.466797 A 1.0346335,1.0346335 0 0 0 7.6601562,23.160156 L 5.2441406,23.1875 3.7324219,20.224609 5.1542969,18.273437 a 1.0346335,1.0346335 0 0 0 0.1875,-0.771484 C 5.2487367,16.916938 5.2018653,16.324784 5.2050781,15.732422 a 1.0346335,1.0346335 0 0 0 -0.3125,-0.746094 L 3.1875,13.324219 l 1.0273437,-3.164063 2.375,-0.3710935 A 1.0346335,1.0346335 0 0 0 7.2617187,9.3789063 C 7.6129961,8.9012924 8.0034754,8.4532071 8.4277344,8.0390625 a 1.0346335,1.0346335 0 0 0 0.3125,-0.7539063 L 8.7089844,4.8964844 11.669922,3.3867188 13.646484,4.828125 a 1.0346335,1.0346335 0 0 0 0.767579,0.1855469 C 14.984048,4.92537 15.559942,4.8837271 16.136719,4.8867187 a 1.0346335,1.0346335 0 0 0 0.746093,-0.3125 z m -2.865234,7.7558591 c -0.671037,0.04662 -1.344027,0.22562 -1.978515,0.548828 -2.538777,1.293335 -3.55621,4.430567 -2.261719,6.96875 1.294146,2.537276 4.42947,3.553819 6.966797,2.259766 2.536446,-1.293685 3.554108,-4.427741 2.261718,-6.964844 -0.969689,-1.903432 -2.975169,-2.952355 -4.988281,-2.8125 z m 1.335938,2.199219 c 0.754989,0.245379 1.415923,0.78195 1.808593,1.552734 0.785009,1.541058 0.183243,3.397796 -1.357422,4.183594 -1.541219,0.786032 -3.397507,0.183761 -4.183593,-1.357422 -0.786306,-1.541755 -0.1847,-3.39994 1.357422,-4.185547 0.770801,-0.392646 1.62001,-0.438738 2.375,-0.193359 z"
         id="pathEngrenage"><title
           id="title21">Engrenage</title></path><title
         id="title22">Engrenage</title></symbol><symbol
       id="CourbesDeVentilation"><path
         id="pathCourbesDeVentilation"
         d="m 127.26212,112.27805 c -9.45661,0.21631 -18.07263,4.75822 -25.21762,13.19324 -6.934847,8.43503 -12.608812,20.54687 -17.232046,36.76805 a 5.4638181,5.6233505 0 0 0 3.782647,7.13736 5.4638181,5.6233505 0 0 0 6.934843,-3.89309 c 4.413086,-15.3561 9.456616,-25.95394 14.920426,-32.6587 4.62324,-5.40707 9.24647,-6.92105 14.07984,-7.78618 2.10147,11.03041 5.25368,21.412 11.34793,27.68417 7.56528,7.78618 17.23204,12.32815 26.26834,16.22124 a 5.4638181,5.6233505 0 0 0 7.35516,-3.02796 5.4638181,5.6233505 0 0 0 -2.94208,-7.56993 c -8.61599,-3.46052 -16.81175,-7.56987 -22.69584,-13.62578 -5.88411,-5.83965 -9.8769,-13.62582 -10.92763,-27.03536 a 5.4638181,5.6233505 0 0 0 -5.67397,-5.19078 z m -74.391988,0 c -9.456606,0.21631 -18.282773,4.75822 -25.217622,13.19324 -6.934843,8.43503 -12.608813,20.54687 -17.232042,36.76805 a 5.4638181,5.6233505 0 0 0 3.782641,7.13736 5.4638181,5.6233505 0 0 0 6.934849,-3.89309 c 4.413086,-15.3561 9.666754,-25.95394 14.920428,-32.6587 4.623229,-5.40707 9.246458,-6.92105 14.07984,-7.78618 2.101466,11.03041 5.253668,21.412 11.34793,27.68417 7.565288,7.78618 17.232042,12.32815 26.268357,16.22124 a 5.4638181,5.6233505 0 0 0 7.35514,-3.02796 5.4638181,5.6233505 0 0 0 -2.942059,-7.56993 C 83.341427,154.88573 75.355848,150.77638 69.471735,144.72047 63.587622,138.88082 59.384684,131.09465 58.544096,117.68511 a 5.4638181,5.6233505 0 0 0 -5.673964,-5.40706 z M 89.015392,10.408892 a 5.6739653,5.8396332 0 0 0 -3.99279,5.623352 v 34.38895 a 5.6739653,5.8396332 0 0 0 5.673965,5.83963 5.6739653,5.8396332 0 0 0 5.673965,-5.83963 V 28.792922 c 7.355138,9.300154 14.920428,18.38403 25.427768,23.7911 v 32.226122 a 5.6739653,5.8396332 0 0 0 10.2972,3.027959 c 8.61602,-14.707223 15.76101,-25.088796 33.83365,-31.793557 a 5.6739653,5.8396332 0 0 0 3.36231,-7.569897 5.6739653,5.8396332 0 0 0 -7.14498,-3.460524 c -13.6595,5.190786 -22.0654,13.409526 -29.21039,22.493403 V 50.421194 a 5.6739653,5.8396332 0 0 0 -3.5725,-5.407069 C 115.4939,39.17449 104.98656,27.711508 95.319801,12.788002 a 5.6739653,5.8396332 0 0 0 -6.304409,-2.162827 z m -75.022426,0.865131 a 5.6739653,5.8396332 0 0 0 -3.992789,5.623347 v 34.388955 a 5.6739653,5.8396332 0 0 0 5.673964,5.839635 5.6739653,5.8396332 0 0 0 5.673965,-5.839635 V 29.658053 c 7.35514,9.300154 15.130571,18.384031 25.42777,23.7911 v 32.226122 a 5.6739653,5.8396332 0 0 0 10.297193,3.027959 C 65.689093,73.996011 72.834085,63.614438 90.906715,56.909672 a 5.6739653,5.8396332 0 0 0 3.36235,-7.353609 5.6739653,5.8396332 0 0 0 -7.144991,-3.460524 C 73.464524,51.286325 65.058649,59.505065 57.913657,68.588942 V 51.502608 A 5.6739653,5.8396332 0 0 0 54.341159,46.095539 C 40.471466,40.255904 29.964125,28.576639 20.29737,13.869416 a 5.6739653,5.8396332 0 0 0 -6.304404,-2.37911 z"><title
           id="title23">Courbes de ventilation</title></path><title
         id="title24">Courbes de ventilation</title></symbol></defs><g
     inkscape:groupmode="layer"
     id="layer5"
     inkscape:label="Calque principal" /><metadata
     id="metadata3397"><rdf:RDF><cc:Work
         rdf:about=""><dc:title>Inhalothérapie</dc:title><dc:creator><cc:Agent><dc:title>Nicolas Blais St-Laurent</dc:title></cc:Agent></dc:creator></cc:Work></rdf:RDF></metadata></svg>
