<?xml version="1.0" encoding="UTF-8" standalone="no"?>
<!-- Created with Inkscape (http://www.inkscape.org/) -->

<svg
   xmlns:dc="http://purl.org/dc/elements/1.1/"
   xmlns:cc="http://creativecommons.org/ns#"
   xmlns:rdf="http://www.w3.org/1999/02/22-rdf-syntax-ns#"
   xmlns:svg="http://www.w3.org/2000/svg"
   xmlns="http://www.w3.org/2000/svg"
   xmlns:sodipodi="http://sodipodi.sourceforge.net/DTD/sodipodi-0.dtd"
   xmlns:inkscape="http://www.inkscape.org/namespaces/inkscape"
   width="198.45508mm"
   height="228.33974mm"
   viewBox="0 0 198.45507 228.33974"
   version="1.1"
   id="svg8"
   inkscape:version="0.92.4 (unknown)"
   sodipodi:docname="Stethoscope.svg"
   style="enable-background:new">
  <defs
     id="defs2" />
  <sodipodi:namedview
     id="base"
     pagecolor="#ababab"
     bordercolor="#666666"
     borderopacity="1.0"
     inkscape:pageopacity="0"
     inkscape:pageshadow="2"
     inkscape:zoom="0.47482464"
     inkscape:cx="438.65107"
     inkscape:cy="316.67832"
     inkscape:document-units="mm"
     inkscape:current-layer="g916"
     showgrid="false"
     inkscape:window-width="1600"
     inkscape:window-height="829"
     inkscape:window-x="0"
     inkscape:window-y="34"
     inkscape:window-maximized="1"
     inkscape:pagecheckerboard="true"
     fit-margin-top="0"
     fit-margin-left="0"
     fit-margin-right="0"
     fit-margin-bottom="0" />
  <metadata
     id="metadata5">
    <rdf:RDF>
      <cc:Work
         rdf:about="">
        <dc:format>image/svg+xml</dc:format>
        <dc:type
           rdf:resource="http://purl.org/dc/dcmitype/StillImage" />
        <dc:title></dc:title>
      </cc:Work>
    </rdf:RDF>
  </metadata>
  <g
     inkscape:label="Stetho chemin"
     inkscape:groupmode="layer"
     id="g916"
     style="display:inline"
     transform="translate(-4.4160156,-34.052003)">
    <path
       style="color:#000000;font-style:normal;font-variant:normal;font-weight:normal;font-stretch:normal;font-size:medium;line-height:normal;font-family:sans-serif;font-variant-ligatures:normal;font-variant-position:normal;font-variant-caps:normal;font-variant-numeric:normal;font-variant-alternates:normal;font-feature-settings:normal;text-indent:0;text-align:start;text-decoration:none;text-decoration-line:none;text-decoration-style:solid;text-decoration-color:#000000;letter-spacing:normal;word-spacing:normal;text-transform:none;writing-mode:lr-tb;direction:ltr;text-orientation:mixed;dominant-baseline:auto;baseline-shift:baseline;text-anchor:start;white-space:normal;shape-padding:0;clip-rule:nonzero;display:inline;overflow:visible;visibility:visible;opacity:1;isolation:auto;mix-blend-mode:normal;color-interpolation:sRGB;color-interpolation-filters:linearRGB;solid-color:#000000;solid-opacity:1;vector-effect:none;fill:#000000;fill-opacity:1;fill-rule:nonzero;stroke:none;stroke-width:5.29166651;stroke-linecap:round;stroke-linejoin:round;stroke-miterlimit:4;stroke-dasharray:none;stroke-dashoffset:0;stroke-opacity:1;color-rendering:auto;image-rendering:auto;shape-rendering:auto;text-rendering:auto;enable-background:accumulate"
       d="m 103.70508,34.052734 a 2.6460978,2.6460978 0 0 0 -1.38477,0.353516 L 5.7382812,90.167969 A 2.6460978,2.6460978 0 0 0 4.4160156,92.458984 V 203.98438 a 2.6460978,2.6460978 0 0 0 1.3222656,2.29101 l 96.5820288,55.76172 a 2.6460978,2.6460978 0 0 0 2.64649,0 l 96.58203,-55.76172 a 2.6460978,2.6460978 0 0 0 1.32226,-2.29101 V 92.458984 a 2.6460978,2.6460978 0 0 0 -1.32226,-2.291015 L 104.9668,34.40625 a 2.6460978,2.6460978 0 0 0 -1.26172,-0.353516 z m -0.0625,5.699219 93.9375,54.234375 V 202.45508 L 103.64258,256.68945 9.7070312,202.45508 V 93.986328 Z"
       id="path881"
       inkscape:connector-curvature="0" />
    <text
       id="text885"
       y="215.18327"
       x="104.31084"
       style="font-style:normal;font-variant:normal;font-weight:bold;font-stretch:normal;font-size:14.33026695px;line-height:1.25;font-family:sans-serif;-inkscape-font-specification:'sans-serif Bold';text-align:center;letter-spacing:0px;word-spacing:0px;text-anchor:middle;display:inline;fill:#000000;fill-opacity:1;stroke:none;stroke-width:0.35825667"
       xml:space="preserve"><tspan
         style="font-style:normal;font-variant:normal;font-weight:bold;font-stretch:normal;font-family:sans-serif;-inkscape-font-specification:'sans-serif Bold';text-align:center;text-anchor:middle;fill:#000000;stroke:none;stroke-width:0.35825667"
         y="215.18327"
         x="104.31084"
         id="tspan883"
         sodipodi:role="line">THÉRAPEUTE</tspan></text>
    <text
       id="text889"
       y="92.674271"
       x="103.34216"
       style="font-style:normal;font-variant:normal;font-weight:bold;font-stretch:normal;font-size:22.64135742px;line-height:1.25;font-family:sans-serif;-inkscape-font-specification:'sans-serif Bold';text-align:center;letter-spacing:0px;word-spacing:0px;text-anchor:middle;display:inline;fill:#000000;fill-opacity:1;stroke:none;stroke-width:0.56603396"
       xml:space="preserve"><tspan
         style="font-style:normal;font-variant:normal;font-weight:bold;font-stretch:normal;font-family:sans-serif;-inkscape-font-specification:'sans-serif Bold';text-align:center;text-anchor:middle;fill:#000000;stroke:none;stroke-width:0.56603396"
         y="92.674271"
         x="103.34216"
         id="tspan887"
         sodipodi:role="line">INHALO</tspan></text>
    <g
       id="g914"
       transform="matrix(0.40400544,0,0,0.40400544,82.110077,94.338377)"
       style="display:inline;fill:#000000;stroke:#ffffff;enable-background:new">
      <path
         style="color:#000000;font-style:normal;font-variant:normal;font-weight:normal;font-stretch:normal;font-size:medium;line-height:normal;font-family:sans-serif;font-variant-ligatures:normal;font-variant-position:normal;font-variant-caps:normal;font-variant-numeric:normal;font-variant-alternates:normal;font-feature-settings:normal;text-indent:0;text-align:start;text-decoration:none;text-decoration-line:none;text-decoration-style:solid;text-decoration-color:#000000;letter-spacing:normal;word-spacing:normal;text-transform:none;writing-mode:lr-tb;direction:ltr;text-orientation:mixed;dominant-baseline:auto;baseline-shift:baseline;text-anchor:start;white-space:normal;shape-padding:0;clip-rule:nonzero;display:inline;overflow:visible;visibility:visible;opacity:1;isolation:auto;mix-blend-mode:normal;color-interpolation:sRGB;color-interpolation-filters:linearRGB;solid-color:#000000;solid-opacity:1;vector-effect:none;fill:#000000;fill-opacity:1;fill-rule:nonzero;stroke:none;stroke-width:4.27020454;stroke-linecap:round;stroke-linejoin:round;stroke-miterlimit:4;stroke-dasharray:none;stroke-dashoffset:0;stroke-opacity:1;color-rendering:auto;image-rendering:auto;shape-rendering:auto;text-rendering:auto;enable-background:accumulate"
         d="m -5.5859375,33.402344 c -4.2925509,0.107056 -7.6814555,1.959682 -9.7949215,5.048828 -2.817956,4.118861 -3.707617,9.8694 -3.927735,16.416016 -0.440235,13.093231 2.109375,29.668603 2.109375,41.910156 a 2.1353158,2.1353158 0 1 0 4.269531,0 c 0,-12.81821 -2.528364,-29.364303 -2.111328,-41.767578 0.208519,-6.201638 1.231938,-11.292947 3.185547,-14.148438 1.9536095,-2.855491 4.5005514,-4.041766 9.8945315,-2.804687 a 2.1353158,2.1353158 0 1 0 0.9550781,-4.16211 c -1.6182303,-0.371132 -3.1492278,-0.527873 -4.5800781,-0.492187 z m 37.7890625,0.439453 a 2.1353158,2.1353158 0 1 0 0,4.269531 c 5.865331,0 8.862574,1.551247 10.755859,4.19336 1.893285,2.642112 2.698083,6.862168 2.75,12.316406 0.103836,10.908476 -2.668841,26.259027 -1.533203,42.30664 a 2.1353158,2.1353158 0 1 0 4.259766,-0.300781 c -1.086851,-15.358204 1.653774,-30.406161 1.542969,-42.046875 -0.0554,-5.820357 -0.789299,-10.912701 -3.548828,-14.763672 -2.75953,-3.85097 -7.528615,-5.974609 -14.226563,-5.974609 z"
         id="path892"
         inkscape:connector-curvature="0" />
      <path
         style="color:#000000;font-style:normal;font-variant:normal;font-weight:normal;font-stretch:normal;font-size:medium;line-height:normal;font-family:sans-serif;font-variant-ligatures:normal;font-variant-position:normal;font-variant-caps:normal;font-variant-numeric:normal;font-variant-alternates:normal;font-feature-settings:normal;text-indent:0;text-align:start;text-decoration:none;text-decoration-line:none;text-decoration-style:solid;text-decoration-color:#000000;letter-spacing:normal;word-spacing:normal;text-transform:none;writing-mode:lr-tb;direction:ltr;text-orientation:mixed;dominant-baseline:auto;baseline-shift:baseline;text-anchor:start;white-space:normal;shape-padding:0;clip-rule:nonzero;display:inline;overflow:visible;visibility:visible;opacity:1;isolation:auto;mix-blend-mode:normal;color-interpolation:sRGB;color-interpolation-filters:linearRGB;solid-color:#000000;solid-opacity:1;vector-effect:none;fill:#000000;fill-opacity:1;fill-rule:nonzero;stroke:none;stroke-width:10.58333302;stroke-linecap:butt;stroke-linejoin:round;stroke-miterlimit:4;stroke-dasharray:none;stroke-dashoffset:0;stroke-opacity:1;color-rendering:auto;image-rendering:auto;shape-rendering:auto;text-rendering:auto;enable-background:accumulate"
         d="m -9.8535156,96.634766 -10.5800784,0.287109 c 0.286997,10.590995 4.460577,18.955375 11.2207034,24.025395 5.4562509,4.09212 12.2133729,6.01524 19.5058596,6.63085 l 0.07226,75.87891 a 5.2921957,5.2921957 0 0 0 0.242188,1.57422 c 0,0 2.464673,7.74767 9.753906,15.05273 7.289233,7.30507 19.743265,14.45118 38.699219,14.45118 18.955943,0 31.657614,-7.11719 39.242187,-14.36133 7.584571,-7.24415 10.406241,-14.92188 10.406241,-14.92188 a 5.2921957,5.2921957 0 0 0 0.31642,-1.80078 V 125.64062 H 98.441406 v 76.64063 c -0.336028,0.85901 -2.092886,5.12423 -7.447265,10.23828 -5.917119,5.65153 -15.552458,11.43164 -31.933594,11.43164 -16.381149,0 -25.628533,-5.75118 -31.207031,-11.34179 -5.12456,-5.13569 -6.657037,-9.4642 -6.90625,-10.20508 l -0.07031,-74.66992 c 6.993002,-0.28824 13.676888,-1.34561 19.373047,-5.04688 7.123754,-4.6289 11.310522,-13.4216 11.347656,-25.894531 l -10.583984,-0.03125 c -0.03096,10.397751 -2.608252,14.501681 -6.53125,17.050781 -3.922998,2.5491 -10.602893,3.46484 -18.900391,3.46484 -7.8771757,0 -14.2688453,-1.66457 -18.4453122,-4.79687 -4.176467,-3.1323 -6.7685057,-7.66328 -6.9902344,-15.845704 z"
         id="path894"
         inkscape:connector-curvature="0" />
      <path
         style="color:#000000;font-style:normal;font-variant:normal;font-weight:normal;font-stretch:normal;font-size:medium;line-height:normal;font-family:sans-serif;font-variant-ligatures:normal;font-variant-position:normal;font-variant-caps:normal;font-variant-numeric:normal;font-variant-alternates:normal;font-feature-settings:normal;text-indent:0;text-align:start;text-decoration:none;text-decoration-line:none;text-decoration-style:solid;text-decoration-color:#000000;letter-spacing:normal;word-spacing:normal;text-transform:none;writing-mode:lr-tb;direction:ltr;text-orientation:mixed;dominant-baseline:auto;baseline-shift:baseline;text-anchor:start;white-space:normal;shape-padding:0;clip-rule:nonzero;display:inline;overflow:visible;visibility:visible;opacity:1;isolation:auto;mix-blend-mode:normal;color-interpolation:sRGB;color-interpolation-filters:linearRGB;solid-color:#000000;solid-opacity:1;vector-effect:none;fill:#000000;fill-opacity:1;fill-rule:nonzero;stroke:none;stroke-width:3.03699994;stroke-linecap:round;stroke-linejoin:round;stroke-miterlimit:4;stroke-dasharray:none;stroke-dashoffset:0;stroke-opacity:1;color-rendering:auto;image-rendering:auto;shape-rendering:auto;text-rendering:auto;enable-background:accumulate"
         d="m 102.83594,78.916016 c -13.34569,0 -24.197268,10.851578 -24.197268,24.197264 0,13.34569 10.851578,24.19727 24.197268,24.19727 13.34569,0 24.19726,-10.85158 24.19726,-24.19727 0,-13.345686 -10.85157,-24.197264 -24.19726,-24.197264 z m 0,3.037109 c 11.70437,0 21.16015,9.455785 21.16015,21.160155 0,11.70437 -9.45578,21.16016 -21.16015,21.16016 -11.704373,0 -21.160159,-9.45579 -21.160159,-21.16016 0,-11.70437 9.455786,-21.160155 21.160159,-21.160155 z"
         id="circle896"
         inkscape:connector-curvature="0" />
      <rect
         y="104.1111"
         x="94.690674"
         height="2.9776597"
         width="15.867599"
         id="rect898"
         style="fill:#000000;fill-opacity:1;stroke:none;stroke-width:2.05620146;stroke-linecap:butt;stroke-linejoin:round;stroke-miterlimit:4;stroke-dasharray:none;stroke-opacity:1" />
      <rect
         transform="rotate(90)"
         y="-98.672653"
         x="89.956146"
         height="3.7581155"
         width="12.572339"
         id="rect900"
         style="fill:#000000;fill-opacity:1;stroke:none;stroke-width:2.05620146;stroke-linecap:butt;stroke-linejoin:round;stroke-miterlimit:4;stroke-dasharray:none;stroke-opacity:1" />
      <rect
         transform="rotate(90)"
         y="-110.66382"
         x="89.956146"
         height="3.7581155"
         width="12.572339"
         id="rect902"
         style="fill:#000000;fill-opacity:1;stroke:none;stroke-width:2.05620146;stroke-linecap:butt;stroke-linejoin:round;stroke-miterlimit:4;stroke-dasharray:none;stroke-opacity:1" />
      <rect
         transform="rotate(90)"
         y="-104.66823"
         x="87.971039"
         height="3.7581155"
         width="12.572339"
         id="rect904"
         style="fill:#000000;fill-opacity:1;stroke:none;stroke-width:2.05620146;stroke-linecap:butt;stroke-linejoin:round;stroke-miterlimit:4;stroke-dasharray:none;stroke-opacity:1" />
      <text
         id="text908"
         y="115.76723"
         x="89.578926"
         style="font-style:normal;font-variant:normal;font-weight:bold;font-stretch:normal;font-size:8.04990768px;line-height:1.25;font-family:sans-serif;-inkscape-font-specification:'sans-serif Bold';letter-spacing:0px;word-spacing:0px;fill:#000000;fill-opacity:1;stroke:none;stroke-width:0.20124768"
         xml:space="preserve"><tspan
           style="font-style:normal;font-variant:normal;font-weight:bold;font-stretch:normal;font-family:sans-serif;-inkscape-font-specification:'sans-serif Bold';fill:#000000;stroke:none;stroke-width:0.20124768"
           y="115.76723"
           x="89.578926"
           id="tspan906"
           sodipodi:role="line">CHUM</tspan></text>
      <ellipse
         transform="rotate(11.60719)"
         ry="4.8600593"
         rx="5.929594"
         cy="36.076168"
         cx="8.8428106"
         id="ellipse910"
         style="fill:#000000;fill-opacity:1;stroke:none;stroke-width:2.71764874;stroke-linecap:butt;stroke-linejoin:round;stroke-miterlimit:4;stroke-dasharray:none;stroke-opacity:1;paint-order:normal" />
      <ellipse
         transform="matrix(-0.97955001,0.20120085,0.20120085,0.97955001,0,0)"
         ry="4.8600593"
         rx="5.929594"
         cy="42.808434"
         cx="-23.933353"
         id="use912"
         style="fill:#000000;fill-opacity:1;stroke:none;stroke-width:2.71764874;stroke-linecap:butt;stroke-linejoin:round;stroke-miterlimit:4;stroke-dasharray:none;stroke-opacity:1;paint-order:normal" />
    </g>
  </g>
</svg>
