<?xml version="1.0" encoding="UTF-8" standalone="no"?>
<svg
   xmlns:dc="http://purl.org/dc/elements/1.1/"
   xmlns:cc="http://creativecommons.org/ns#"
   xmlns:rdf="http://www.w3.org/1999/02/22-rdf-syntax-ns#"
   xmlns:svg="http://www.w3.org/2000/svg"
   xmlns="http://www.w3.org/2000/svg"
   xmlns:sodipodi="http://sodipodi.sourceforge.net/DTD/sodipodi-0.dtd"
   xmlns:inkscape="http://www.inkscape.org/namespaces/inkscape"
   style="enable-background:new"
   sodipodi:docname="Debit-blanc.svg"
   inkscape:version="1.0 (4035a4fb49, 2020-05-01)"
   id="svg8"
   version="1.1"
   viewBox="0 0 198.45507 228.33974"
   height="863.01636"
   width="750.06647">
  <defs
     id="defs2" />
  <sodipodi:namedview
     inkscape:document-rotation="0"
     units="px"
     fit-margin-bottom="0"
     fit-margin-right="0"
     fit-margin-left="0"
     fit-margin-top="0"
     inkscape:pagecheckerboard="true"
     inkscape:window-maximized="1"
     inkscape:window-y="0"
     inkscape:window-x="0"
     inkscape:window-height="829"
     inkscape:window-width="1600"
     showgrid="false"
     inkscape:current-layer="layer1"
     inkscape:document-units="mm"
     inkscape:cy="370.29094"
     inkscape:cx="751.85298"
     inkscape:zoom="0.46425928"
     inkscape:pageshadow="2"
     inkscape:pageopacity="0"
     borderopacity="1.0"
     bordercolor="#666666"
     pagecolor="#ababab"
     id="base" />
  <metadata
     id="metadata5">
    <rdf:RDF>
      <cc:Work
         rdf:about="">
        <dc:format>image/svg+xml</dc:format>
        <dc:type
           rdf:resource="http://purl.org/dc/dcmitype/StillImage" />
        <dc:title />
      </cc:Work>
    </rdf:RDF>
  </metadata>
  <g
     transform="translate(-4.4160156,-34.052003)"
     style="display:inline"
     id="layer1"
     inkscape:groupmode="layer"
     inkscape:label="Vectoriel">
    <path
       d="m 137.56456,167.8057 -33.92103,19.58432 -33.921022,-19.58432 10e-7,-39.16862 33.921021,-19.58431 33.92103,19.58431 z"
       inkscape:randomized="0"
       inkscape:rounded="0"
       inkscape:flatsided="true"
       sodipodi:arg2="1.0471976"
       sodipodi:arg1="0.52359878"
       sodipodi:r2="33.921021"
       sodipodi:r1="39.168625"
       sodipodi:cy="148.22139"
       sodipodi:cx="103.64353"
       sodipodi:sides="6"
       id="path4523"
       style="fill:none;fill-opacity:1;stroke:#ffffff;stroke-width:1.8585;stroke-linecap:round;stroke-linejoin:round;stroke-miterlimit:4;stroke-dasharray:none"
       sodipodi:type="star" />
    <path
       style="display:inline;fill:none;stroke:#ffffff;stroke-width:2.31941;stroke-linecap:round;stroke-linejoin:round;stroke-miterlimit:4;stroke-dasharray:none;stroke-opacity:1"
       d="M 90.785317,147.92237 V 135.8756 c 4.962603,8.08987 9.240113,10.4706 13.421073,12.04677 v 14.00298 c 1.96936,-5.64218 5.86985,-10.47126 12.85153,-14.00298"
       id="path828"
       inkscape:connector-curvature="0"
       sodipodi:nodetypes="ccccc" />
    <g
       transform="matrix(0.35121241,0,0,0.35121241,67.242638,96.1642)"
       style="font-style:normal;font-variant:normal;font-weight:bold;font-stretch:normal;font-size:14.3303px;line-height:1.25;font-family:sans-serif;-inkscape-font-specification:'sans-serif Bold';text-align:center;letter-spacing:0px;word-spacing:0px;text-anchor:middle;display:inline;fill:#ffffff;fill-opacity:1;stroke:none;stroke-width:0.358257"
       id="text832"
       aria-label="THÉRAPEUTE">
      <path
         id="path862"
         style="font-style:normal;font-variant:normal;font-weight:bold;font-stretch:normal;font-family:sans-serif;-inkscape-font-specification:'sans-serif Bold';text-align:center;text-anchor:middle;fill:#ffffff;stroke:none;stroke-width:0.358257"
         d="m 51.793347,204.73645 h 9.628148 v 2.03619 h -3.463614 v 8.41063 h -2.693922 v -8.41063 h -3.470612 z" />
      <path
         id="path864"
         style="font-style:normal;font-variant:normal;font-weight:bold;font-stretch:normal;font-family:sans-serif;-inkscape-font-specification:'sans-serif Bold';text-align:center;text-anchor:middle;fill:#ffffff;stroke:none;stroke-width:0.358257"
         d="m 62.813938,204.73645 h 2.693922 v 3.98141 h 3.97441 v -3.98141 h 2.693923 v 10.44682 H 69.48227 v -4.42922 h -3.97441 v 4.42922 h -2.693922 z" />
      <path
         id="path866"
         style="font-style:normal;font-variant:normal;font-weight:bold;font-stretch:normal;font-family:sans-serif;-inkscape-font-specification:'sans-serif Bold';text-align:center;text-anchor:middle;fill:#ffffff;stroke:none;stroke-width:0.358257"
         d="m 74.80714,204.73645 h 7.270092 v 2.03619 h -4.576169 v 1.94522 h 4.303278 v 2.03619 h -4.303278 v 2.39304 h 4.730107 v 2.03618 h -7.42403 z m 3.883447,-2.84086 h 1.980208 l -1.994203,1.84726 h -1.371451 z" />
      <path
         id="path868"
         style="font-style:normal;font-variant:normal;font-weight:bold;font-stretch:normal;font-family:sans-serif;-inkscape-font-specification:'sans-serif Bold';text-align:center;text-anchor:middle;fill:#ffffff;stroke:none;stroke-width:0.358257"
         d="m 88.423693,209.3686 q 0.846661,0 1.210515,-0.31487 0.370852,-0.31488 0.370852,-1.03559 0,-0.71371 -0.370852,-1.02159 -0.363854,-0.30788 -1.210515,-0.30788 h -1.133547 v 2.67993 z m -1.133547,1.86125 v 3.95342 h -2.693922 v -10.44682 h 4.114354 q 2.064174,0 3.022791,0.69273 0.965613,0.69272 0.965613,2.19012 0,1.03559 -0.503798,1.70032 -0.496801,0.66473 -1.504398,0.97961 0.552779,0.12595 0.986605,0.57377 0.440824,0.44082 0.888644,1.34346 l 1.462415,2.96681 h -2.868852 l -1.27349,-2.59596 q -0.384846,-0.78368 -0.783687,-1.07057 -0.391843,-0.28689 -1.04958,-0.28689 z" />
      <path
         id="path870"
         style="font-style:normal;font-variant:normal;font-weight:bold;font-stretch:normal;font-family:sans-serif;-inkscape-font-specification:'sans-serif Bold';text-align:center;text-anchor:middle;fill:#ffffff;stroke:none;stroke-width:0.358257"
         d="m 101.97027,213.28003 h -4.212311 l -0.664734,1.90324 h -2.707917 l 3.869452,-10.44682 h 3.21172 l 3.86945,10.44682 h -2.70792 z m -3.54058,-1.93822 h 2.86186 l -1.427434,-4.15634 z" />
      <path
         id="path872"
         style="font-style:normal;font-variant:normal;font-weight:bold;font-stretch:normal;font-family:sans-serif;-inkscape-font-specification:'sans-serif Bold';text-align:center;text-anchor:middle;fill:#ffffff;stroke:none;stroke-width:0.358257"
         d="m 106.72137,204.73645 h 4.47121 q 1.9942,0 3.05778,0.88865 1.07057,0.88164 1.07057,2.51899 0,1.64434 -1.07057,2.53299 -1.06358,0.88164 -3.05778,0.88164 h -1.77729 v 3.62455 h -2.69392 z m 2.69392,1.95222 v 2.91783 h 1.49041 q 0.78368,0 1.21051,-0.37784 0.42683,-0.38485 0.42683,-1.08457 0,-0.69972 -0.42683,-1.07757 -0.42683,-0.37785 -1.21051,-0.37785 z" />
      <path
         id="path874"
         style="font-style:normal;font-variant:normal;font-weight:bold;font-stretch:normal;font-family:sans-serif;-inkscape-font-specification:'sans-serif Bold';text-align:center;text-anchor:middle;fill:#ffffff;stroke:none;stroke-width:0.358257"
         d="m 117.22417,204.73645 h 7.27009 v 2.03619 h -4.57617 v 1.94522 h 4.30328 v 2.03619 h -4.30328 v 2.39304 h 4.73011 v 2.03618 h -7.42403 z" />
      <path
         id="path876"
         style="font-style:normal;font-variant:normal;font-weight:bold;font-stretch:normal;font-family:sans-serif;-inkscape-font-specification:'sans-serif Bold';text-align:center;text-anchor:middle;fill:#ffffff;stroke:none;stroke-width:0.358257"
         d="m 127.01325,204.73645 h 2.69392 v 6.2625 q 0,1.29448 0.41984,1.85426 0.42683,0.55277 1.38544,0.55277 0.96562,0 1.38545,-0.55277 0.42683,-0.55978 0.42683,-1.85426 v -6.2625 h 2.69392 v 6.2625 q 0,2.21811 -1.11256,3.30268 -1.11255,1.08456 -3.39364,1.08456 -2.27409,0 -3.38664,-1.08456 -1.11256,-1.08457 -1.11256,-3.30268 z" />
      <path
         id="path878"
         style="font-style:normal;font-variant:normal;font-weight:bold;font-stretch:normal;font-family:sans-serif;-inkscape-font-specification:'sans-serif Bold';text-align:center;text-anchor:middle;fill:#ffffff;stroke:none;stroke-width:0.358257"
         d="m 137.4041,204.73645 h 9.62814 v 2.03619 h -3.46361 v 8.41063 h -2.69392 v -8.41063 h -3.47061 z" />
      <path
         id="path880"
         style="font-style:normal;font-variant:normal;font-weight:bold;font-stretch:normal;font-family:sans-serif;-inkscape-font-specification:'sans-serif Bold';text-align:center;text-anchor:middle;fill:#ffffff;stroke:none;stroke-width:0.358257"
         d="m 148.42469,204.73645 h 7.27009 v 2.03619 h -4.57617 v 1.94522 h 4.30328 v 2.03619 h -4.30328 v 2.39304 h 4.73011 v 2.03618 h -7.42403 z" />
    </g>
    <g
       transform="matrix(0.35121241,0,0,0.35121241,67.242638,96.1642)"
       style="font-style:normal;font-variant:normal;font-weight:bold;font-stretch:normal;font-size:22.6414px;line-height:1.25;font-family:sans-serif;-inkscape-font-specification:'sans-serif Bold';text-align:center;letter-spacing:0px;word-spacing:0px;text-anchor:middle;display:inline;fill:#ffffff;fill-opacity:1;stroke:none;stroke-width:0.566034"
       id="text832-3"
       aria-label="INHALO">
      <path
         id="path883"
         style="font-style:normal;font-variant:normal;font-weight:bold;font-stretch:normal;font-family:sans-serif;-inkscape-font-specification:'sans-serif Bold';text-align:center;text-anchor:middle;fill:#ffffff;stroke:none;stroke-width:0.566034"
         d="m 57.064467,76.168633 h 4.25631 v 16.505638 h -4.25631 z" />
      <path
         id="path885"
         style="font-style:normal;font-variant:normal;font-weight:bold;font-stretch:normal;font-family:sans-serif;-inkscape-font-specification:'sans-serif Bold';text-align:center;text-anchor:middle;fill:#ffffff;stroke:none;stroke-width:0.566034"
         d="m 65.488644,76.168633 h 4.753801 L 76.2455,87.489311 V 76.168633 h 4.035203 V 92.674271 H 75.526902 L 69.523847,81.353592 v 11.320679 h -4.035203 z" />
      <path
         id="path887"
         style="font-style:normal;font-variant:normal;font-weight:bold;font-stretch:normal;font-family:sans-serif;-inkscape-font-specification:'sans-serif Bold';text-align:center;text-anchor:middle;fill:#ffffff;stroke:none;stroke-width:0.566034"
         d="m 84.437514,76.168633 h 4.256309 v 6.290494 h 6.279439 v -6.290494 h 4.25631 v 16.505638 h -4.25631 v -6.998037 h -6.279439 v 6.998037 h -4.256309 z" />
      <path
         id="path889"
         style="font-style:normal;font-variant:normal;font-weight:bold;font-stretch:normal;font-family:sans-serif;-inkscape-font-specification:'sans-serif Bold';text-align:center;text-anchor:middle;fill:#ffffff;stroke:none;stroke-width:0.566034"
         d="m 113.40253,89.667215 h -6.65532 l -1.05026,3.007056 h -4.27842 l 6.11361,-16.505638 h 5.0744 l 6.11361,16.505638 h -4.27842 z m -5.59401,-3.062332 h 4.52164 l -2.25529,-6.566878 z" />
      <path
         id="path891"
         style="font-style:normal;font-variant:normal;font-weight:bold;font-stretch:normal;font-family:sans-serif;-inkscape-font-specification:'sans-serif Bold';text-align:center;text-anchor:middle;fill:#ffffff;stroke:none;stroke-width:0.566034"
         d="m 120.90911,76.168633 h 4.25631 v 13.288531 h 7.47342 v 3.217107 h -11.72973 z" />
      <path
         id="path893"
         style="font-style:normal;font-variant:normal;font-weight:bold;font-stretch:normal;font-family:sans-serif;-inkscape-font-specification:'sans-serif Bold';text-align:center;text-anchor:middle;fill:#ffffff;stroke:none;stroke-width:0.566034"
         d="m 142.06906,78.954581 q -1.94574,0 -3.01811,1.437195 -1.07237,1.437196 -1.07237,4.046259 0,2.598007 1.07237,4.035203 1.07237,1.437195 3.01811,1.437195 1.9568,0 3.02917,-1.437195 1.07236,-1.437196 1.07236,-4.035203 0,-2.609063 -1.07236,-4.046259 -1.07237,-1.437195 -3.02917,-1.437195 z m 0,-3.084443 q 3.97993,0 6.23522,2.277402 2.25529,2.277402 2.25529,6.290495 0,4.002036 -2.25529,6.279439 -2.25529,2.277402 -6.23522,2.277402 -3.96887,0 -6.23522,-2.277402 -2.25529,-2.277403 -2.25529,-6.279439 0,-4.013093 2.25529,-6.290495 2.26635,-2.277402 6.23522,-2.277402 z" />
    </g>
  </g>
</svg>
