<?xml version="1.0" encoding="UTF-8" standalone="no"?>
<!-- Created with Inkscape (http://www.inkscape.org/) -->

<svg
   width="180"
   height="180"
   viewBox="0 0 47.625 47.625"
   version="1.1"
   id="svg5"
   inkscape:version="1.3.2 (091e20ef0f, 2023-11-25)"
   sodipodi:docname="boitierNébuliseur.svg"
   xmlns:inkscape="http://www.inkscape.org/namespaces/inkscape"
   xmlns:sodipodi="http://sodipodi.sourceforge.net/DTD/sodipodi-0.dtd"
   xmlns="http://www.w3.org/2000/svg"
   xmlns:svg="http://www.w3.org/2000/svg"
   xmlns:rdf="http://www.w3.org/1999/02/22-rdf-syntax-ns#"
   xmlns:cc="http://creativecommons.org/ns#"
   xmlns:dc="http://purl.org/dc/elements/1.1/">
  <sodipodi:namedview
     id="namedview7"
     pagecolor="#ffffff"
     bordercolor="#999999"
     borderopacity="1"
     inkscape:showpageshadow="0"
     inkscape:pageopacity="0"
     inkscape:pagecheckerboard="0"
     inkscape:deskcolor="#d1d1d1"
     inkscape:document-units="mm"
     showgrid="true"
     inkscape:zoom="2.2586829"
     inkscape:cx="46.044534"
     inkscape:cy="84.341189"
     inkscape:window-width="1920"
     inkscape:window-height="1001"
     inkscape:window-x="0"
     inkscape:window-y="0"
     inkscape:window-maximized="1"
     inkscape:current-layer="layer1">
    <inkscape:grid
       id="grid1"
       units="px"
       originx="0"
       originy="0"
       spacingx="0.52916667"
       spacingy="0.52916667"
       empcolor="#3f3fff"
       empopacity="0.25098039"
       color="#3f3fff"
       opacity="0.1254902"
       empspacing="5"
       dotted="false"
       gridanglex="30"
       gridanglez="30"
       visible="true" />
  </sodipodi:namedview>
  <defs
     id="defs2">
    <inkscape:path-effect
       effect="fillet_chamfer"
       id="path-effect33"
       is_visible="true"
       lpeversion="1"
       nodesatellites_param="F,0,0,1,0,0.69482945,0,1 @ F,0,0,1,0,0.74625903,0,1 @ F,0,0,1,0,0.74625903,0,1 @ F,0,0,1,0,0.69482945,0,1 | F,0,0,1,0,0.6444953,0,1 @ F,0,0,1,0,0.6444953,0,1 @ F,0,0,1,0,0.6444953,0,1 @ F,0,0,1,0,0.6444953,0,1 | F,0,1,1,0,0.70109658,0,1 @ F,0,0,1,0,0.83285702,0,1 @ F,0,0,1,0,0.7001081,0,1 @ F,0,0,1,0,0.58623245,0,1 @ F,0,0,1,0,0.58623245,0,1 @ F,0,0,1,0,0.7001081,0,1 @ F,0,0,1,0,0.7001081,0,1 @ F,0,0,1,0,0.58623245,0,1 @ F,0,0,1,0,0.58623245,0,1 @ F,0,0,1,0,0.7001081,0,1 @ F,0,0,1,0,0.83285702,0,1 @ F,0,0,1,0,0.70109658,0,1"
       radius="0"
       unit="px"
       method="auto"
       mode="F"
       chamfer_steps="1"
       flexible="false"
       use_knot_distance="true"
       apply_no_radius="true"
       apply_with_radius="true"
       only_selected="false"
       hide_knots="false" />
    <symbol
       id="Nébuliseur">
      <title
         id="title3178">Nébuliseur</title>
      <path
         id="rectCorps"
         style="stroke:none;stroke-width:2.76625;stroke-linecap:round;stroke-linejoin:round;stroke-miterlimit:4;stroke-dasharray:none;stroke-opacity:1;paint-order:stroke fill markers"
         d="m 123.26092,102.05564 c 1.9e-4,24.24628 0,48.3028 0,71.94436 h -7.85851 l -4.23639,-11.99072 h -8.82337 L 98.536348,174 H 83.693581 L 79.659694,162.00928 H 68.531532 L 64.24196,174 h -7.502963 v -71.94436 z"
         sodipodi:nodetypes="ccccccccccccc" />
      <rect
         style="stroke:none;stroke-width:2.39915;stroke-linecap:round;stroke-linejoin:round;stroke-miterlimit:4;stroke-dasharray:none;stroke-opacity:1;paint-order:stroke fill markers"
         id="rectCouvercle"
         width="81.816231"
         height="15"
         x="49.091885"
         y="84"
         ry="0.85039252"
         rx="0.85039252" />
      <rect
         style="stroke:none;stroke-width:2.81329;stroke-linecap:round;stroke-linejoin:round;stroke-miterlimit:4;stroke-dasharray:none;stroke-opacity:1;paint-order:stroke fill markers"
         id="rectConnecteur22"
         width="30"
         height="24"
         x="75"
         y="57"
         ry="1.360628"
         rx="1.360628" />
      <g
         id="gGoutelettes"
         transform="matrix(1.1428247,0,0,1.2288976,-53.935247,3.1600764)"
         style="stroke:none;stroke-width:0;stroke-miterlimit:4;stroke-dasharray:none;stroke-opacity:1;paint-order:stroke fill markers">
        <path
           d="m 126.71963,30.122185 c 7.57693,-6.912413 -0.98377,-10.208989 0,0 z"
           id="path5838"
           sodipodi:nodetypes="cc"
           class="class1"
           style="stroke:none;stroke-linejoin:round;stroke-miterlimit:4;stroke-dasharray:none;stroke-opacity:1" />
        <path
           d="m 140.22115,36.610508 c 8.14826,-6.228741 -0.094,-10.25586 0,0 z"
           id="path6513"
           sodipodi:nodetypes="cc"
           class="class1"
           style="stroke:none;stroke-linejoin:round;stroke-miterlimit:4;stroke-dasharray:none;stroke-opacity:1" />
        <path
           d="m 108.42665,27.579695 c 4.58675,-9.173496 -4.58674,-9.173496 0,0 z"
           id="path6515"
           sodipodi:nodetypes="cc"
           class="class1"
           style="stroke:none;stroke-linejoin:round;stroke-miterlimit:4;stroke-dasharray:none;stroke-opacity:1" />
        <path
           d="m 122.43699,21.015567 c 4.5827,-9.175519 -4.59079,-9.171473 0,0 z"
           id="path12174"
           sodipodi:nodetypes="cc"
           class="class1"
           style="stroke:none;stroke-linejoin:round;stroke-miterlimit:4;stroke-dasharray:none;stroke-opacity:1" />
        <path
           d="m 129.84785,17.036386 c 8.02149,-6.391158 -0.30003,-10.2518918 0,0 z"
           id="path12176"
           sodipodi:nodetypes="cc"
           class="class1"
           style="stroke:none;stroke-linejoin:round;stroke-miterlimit:4;stroke-dasharray:none;stroke-opacity:1" />
        <path
           d="m 113.43842,15.635683 c 4.58675,-9.1734986 -4.58674,-9.1734986 0,0 z"
           id="path12178"
           sodipodi:nodetypes="cc"
           class="class1"
           style="stroke:none;stroke-linejoin:round;stroke-miterlimit:4;stroke-dasharray:none;stroke-opacity:1" />
        <path
           d="m 118.65891,29.875457 c 2.60879,-9.918952 -6.36989,-8.038392 0,0 z"
           id="path12180"
           sodipodi:nodetypes="cc"
           class="class1"
           style="stroke:none;stroke-linejoin:round;stroke-miterlimit:4;stroke-dasharray:none;stroke-opacity:1" />
        <path
           d="m 115.00159,38.30784 c -0.61451,-10.237855 -8.559,-5.651108 0,0 z"
           id="path12182"
           sodipodi:nodetypes="cc"
           class="class1"
           style="stroke:none;stroke-linejoin:round;stroke-miterlimit:4;stroke-dasharray:none;stroke-opacity:1" />
        <path
           d="m 104.09496,16.694958 c 2.53134,-9.9389896 -6.432395,-7.9884641 0,0 z"
           id="path12184"
           sodipodi:nodetypes="cc"
           class="class1"
           style="stroke:none;stroke-linejoin:round;stroke-miterlimit:4;stroke-dasharray:none;stroke-opacity:1" />
        <path
           d="m 135.45348,27.462626 c 8.55899,-5.651107 0.61451,-10.237854 0,0 z"
           id="path12186"
           sodipodi:nodetypes="cc"
           class="class1"
           style="stroke:none;stroke-linejoin:round;stroke-miterlimit:4;stroke-dasharray:none;stroke-opacity:1" />
        <path
           d="m 145.96321,25.787083 c 8.85415,-5.17642 1.17133,-10.189218 0,0 z"
           id="path12188"
           sodipodi:nodetypes="cc"
           class="class1"
           style="stroke:none;stroke-linejoin:round;stroke-miterlimit:4;stroke-dasharray:none;stroke-opacity:1" />
        <path
           d="m 122.72439,9.1910732 c 4.58675,-9.17349479 -4.58673,-9.17349479 0,0 z"
           id="path12190"
           sodipodi:nodetypes="cc"
           class="class1"
           style="stroke:none;stroke-linejoin:round;stroke-miterlimit:4;stroke-dasharray:none;stroke-opacity:1" />
        <path
           d="m 122.64395,41.370348 c 5.42099,-8.706562 -3.71265,-9.560725 0,0 z"
           id="path12192"
           sodipodi:nodetypes="cc"
           class="class1"
           style="stroke:none;stroke-linejoin:round;stroke-miterlimit:4;stroke-dasharray:none;stroke-opacity:1" />
        <path
           d="m 131.68752,40.215703 c 7.61446,-6.871054 -0.92817,-10.214205 0,0 z"
           id="path12194"
           sodipodi:nodetypes="cc"
           class="class1"
           style="stroke:none;stroke-linejoin:round;stroke-miterlimit:4;stroke-dasharray:none;stroke-opacity:1" />
        <path
           d="m 139.96408,16.594612 c 8.81251,-5.246987 1.08992,-10.1981973 0,0 z"
           id="path12196"
           sodipodi:nodetypes="cc"
           class="class1"
           style="stroke:none;stroke-linejoin:round;stroke-miterlimit:4;stroke-dasharray:none;stroke-opacity:1" />
      </g>
      <title
         id="title3182">Nébuliseur</title>
    </symbol>
    <symbol
       id="symbol26">
      <path
         id="pathNebuliseur"
         d="m 76.558256,9.9401793 a 1.0204611,1.0204611 0 0 0 -1.022016,1.0220157 1.0204611,1.0204611 0 0 0 1.022016,1.022018 1.0204611,1.0204611 0 0 0 1.018313,-1.022018 1.0204611,1.0204611 0 0 0 -1.018313,-1.0220157 z m 6.16913,0.4221367 a 1.0204611,1.0204611 0 0 0 -1.022016,1.022016 1.0204611,1.0204611 0 0 0 1.022016,1.022018 1.0204611,1.0204611 0 0 0 1.018315,-1.022018 1.0204611,1.0204611 0 0 0 -1.018315,-1.022016 z m -9.990584,1.403421 a 1.0204611,1.0204611 0 0 0 -1.018314,1.018315 1.0204611,1.0204611 0 0 0 1.018314,1.022016 1.0204611,1.0204611 0 0 0 1.022017,-1.022016 1.0204611,1.0204611 0 0 0 -1.022017,-1.018315 z m 2.455062,0.692455 a 1.0204611,1.0204611 0 0 0 -1.022016,1.022016 1.0204611,1.0204611 0 0 0 1.022016,1.018315 1.0204611,1.0204611 0 0 0 1.018313,-1.018315 1.0204611,1.0204611 0 0 0 -1.018313,-1.022016 z m 22.499184,1.31455 a 1.0204611,1.0204611 0 0 0 -1.018315,1.018313 1.0204611,1.0204611 0 0 0 1.018315,1.022018 1.0204611,1.0204611 0 0 0 1.022016,-1.022018 1.0204611,1.0204611 0 0 0 -1.022016,-1.018313 z m 2.758702,0.185155 a 1.0204611,1.0204611 0 0 0 -1.018312,1.022018 1.0204611,1.0204611 0 0 0 1.018312,1.018313 1.0204611,1.0204611 0 0 0 1.02202,-1.018313 1.0204611,1.0204611 0 0 0 -1.02202,-1.022018 z m -13.160317,0.307347 a 1.0204611,1.0204611 0 0 0 -1.018314,1.018313 1.0204611,1.0204611 0 0 0 1.018314,1.022018 1.0204611,1.0204611 0 0 0 1.022017,-1.022018 1.0204611,1.0204611 0 0 0 -1.022017,-1.018313 z m -19.473865,1.059045 a 1.0204611,1.0204611 0 0 0 -1.018313,1.022018 1.0204611,1.0204611 0 0 0 1.018313,1.018313 1.0204611,1.0204611 0 0 0 1.022018,-1.018313 1.0204611,1.0204611 0 0 0 -1.022018,-1.022018 z m 21.921522,0.355484 a 1.0204611,1.0204611 0 0 0 -1.018314,1.022018 1.0204611,1.0204611 0 0 0 1.018314,1.018313 1.0204611,1.0204611 0 0 0 1.022017,-1.018313 1.0204611,1.0204611 0 0 0 -1.022017,-1.022018 z m 2.958665,0 a 1.0204611,1.0204611 0 0 0 -1.022018,1.018315 1.0204611,1.0204611 0 0 0 1.022018,1.022016 1.0204611,1.0204611 0 0 0 1.018313,-1.022016 1.0204611,1.0204611 0 0 0 -1.018313,-1.018315 z m 4.558343,0.492494 a 1.0204611,1.0204611 0 0 0 -1.022018,1.018314 1.0204611,1.0204611 0 0 0 1.022018,1.022017 1.0204611,1.0204611 0 0 0 1.018313,-1.022017 1.0204611,1.0204611 0 0 0 -1.018313,-1.018314 z m -21.129087,0.09627 a 1.0204611,1.0204611 0 0 0 -1.022018,1.022018 1.0204611,1.0204611 0 0 0 1.022018,1.018313 1.0204611,1.0204611 0 0 0 1.018313,-1.018313 1.0204611,1.0204611 0 0 0 -1.018313,-1.022018 z m 6.898612,0.592473 a 1.0204611,1.0204611 0 0 0 -1.018313,1.018316 1.0204611,1.0204611 0 0 0 1.018313,1.022015 1.0204611,1.0204611 0 0 0 1.022018,-1.022015 1.0204611,1.0204611 0 0 0 -1.022018,-1.018316 z m -23.028705,1.366392 a 1.0204611,1.0204611 0 0 0 -1.022018,1.018315 1.0204611,1.0204611 0 0 0 1.022018,1.022016 1.0204611,1.0204611 0 0 0 1.018313,-1.022016 1.0204611,1.0204611 0 0 0 -1.018313,-1.018315 z m 44.157792,1.033126 a 1.0204611,1.0204611 0 0 0 -1.02202,1.022018 1.0204611,1.0204611 0 0 0 1.02202,1.018313 1.0204611,1.0204611 0 0 0 1.01832,-1.018313 1.0204611,1.0204611 0 0 0 -1.01832,-1.022018 z m -15.696844,0.140715 a 1.0204611,1.0204611 0 0 0 -1.018315,1.018313 1.0204611,1.0204611 0 0 0 1.018315,1.022018 1.0204611,1.0204611 0 0 0 1.022016,-1.022018 1.0204611,1.0204611 0 0 0 -1.022016,-1.018313 z m -25.391194,0.03333 a 1.0204611,1.0204611 0 0 0 -1.018315,1.022018 1.0204611,1.0204611 0 0 0 1.018315,1.018313 1.0204611,1.0204611 0 0 0 1.022016,-1.018313 1.0204611,1.0204611 0 0 0 -1.022016,-1.022018 z m 12.682636,0.277723 a 1.0204611,1.0204611 0 0 0 -1.022017,1.018314 1.0204611,1.0204611 0 0 0 1.022017,1.022016 1.0204611,1.0204611 0 0 0 1.022016,-1.022016 1.0204611,1.0204611 0 0 0 -1.022016,-1.018314 z m 24.398802,0.07777 a 1.0204611,1.0204611 0 0 0 -1.022017,1.022016 1.0204611,1.0204611 0 0 0 1.022017,1.018313 1.0204611,1.0204611 0 0 0 1.02202,-1.018313 1.0204611,1.0204611 0 0 0 -1.02202,-1.022016 z m -21.032812,0.810947 a 1.0204611,1.0204611 0 0 0 -1.022016,1.018314 1.0204611,1.0204611 0 0 0 1.022016,1.022016 1.0204611,1.0204611 0 0 0 1.018315,-1.022016 1.0204611,1.0204611 0 0 0 -1.018315,-1.018314 z m -6.935644,0.459166 a 1.0204611,1.0204611 0 0 0 -1.022016,1.022018 1.0204611,1.0204611 0 0 0 1.022016,1.018313 1.0204611,1.0204611 0 0 0 1.018315,-1.018313 1.0204611,1.0204611 0 0 0 -1.018315,-1.022018 z m 25.102365,0.285129 a 1.0204611,1.0204611 0 0 0 -1.018315,1.022016 1.0204611,1.0204611 0 0 0 1.018315,1.018315 1.0204611,1.0204611 0 0 0 1.022016,-1.018315 1.0204611,1.0204611 0 0 0 -1.022016,-1.022016 z m -6.780119,0.28143 a 1.0204611,1.0204611 0 0 0 -1.018315,1.018315 1.0204611,1.0204611 0 0 0 1.018315,1.022016 1.0204611,1.0204611 0 0 0 1.022016,-1.022016 1.0204611,1.0204611 0 0 0 -1.022016,-1.018315 z m -5.658123,0.04072 a 1.0204611,1.0204611 0 0 0 -1.022017,1.018315 1.0204611,1.0204611 0 0 0 1.022017,1.022016 1.0204611,1.0204611 0 0 0 1.018314,-1.022016 1.0204611,1.0204611 0 0 0 -1.018314,-1.018315 z m 2.462468,0.496197 a 1.0204611,1.0204611 0 0 0 -1.022017,1.018315 1.0204611,1.0204611 0 0 0 1.022017,1.022016 1.0204611,1.0204611 0 0 0 1.018314,-1.022016 1.0204611,1.0204611 0 0 0 -1.018314,-1.018315 z m 22.765805,1.081266 a 1.0204611,1.0204611 0 0 0 -1.02203,1.022015 1.0204611,1.0204611 0 0 0 1.02203,1.018316 1.0204611,1.0204611 0 0 0 1.01831,-1.018316 1.0204611,1.0204611 0 0 0 -1.01831,-1.022015 z m -13.989791,0.274018 a 1.0204611,1.0204611 0 0 0 -1.022016,1.022018 1.0204611,1.0204611 0 0 0 1.022016,1.018313 1.0204611,1.0204611 0 0 0 1.022018,-1.018313 1.0204611,1.0204611 0 0 0 -1.022018,-1.022018 z m 2.758705,0.448058 a 1.0204611,1.0204611 0 0 0 -1.018313,1.022018 1.0204611,1.0204611 0 0 0 1.018313,1.018313 1.0204611,1.0204611 0 0 0 1.022018,-1.018313 1.0204611,1.0204611 0 0 0 -1.022018,-1.022018 z m -6.16913,0.377702 a 1.0204611,1.0204611 0 0 0 -1.018314,1.018314 1.0204611,1.0204611 0 0 0 1.018314,1.022017 1.0204611,1.0204611 0 0 0 1.022016,-1.022017 1.0204611,1.0204611 0 0 0 -1.022016,-1.018314 z m -5.513707,0.111082 a 1.0204611,1.0204611 0 0 0 -1.018313,1.018313 1.0204611,1.0204611 0 0 0 1.018313,1.022018 1.0204611,1.0204611 0 0 0 1.022016,-1.022018 1.0204611,1.0204611 0 0 0 -1.022016,-1.018313 z m -26.616875,0.08147 a 1.0204611,1.0204611 0 0 0 -1.018313,1.022018 1.0204611,1.0204611 0 0 0 1.018313,1.018314 1.0204611,1.0204611 0 0 0 1.022018,-1.018314 1.0204611,1.0204611 0 0 0 -1.022018,-1.022018 z m 59.976828,0.214774 a 1.0204611,1.0204611 0 0 0 -1.02201,1.022015 1.0204611,1.0204611 0 0 0 1.02201,1.022018 1.0204611,1.0204611 0 0 0 1.01832,-1.022018 1.0204611,1.0204611 0 0 0 -1.01832,-1.022015 z m -4.72126,0.03333 a 1.0204611,1.0204611 0 0 0 -1.02201,1.018313 1.0204611,1.0204611 0 0 0 1.02201,1.022018 1.0204611,1.0204611 0 0 0 1.01831,-1.022018 1.0204611,1.0204611 0 0 0 -1.01831,-1.018313 z M 104.76,25.088998 a 1.0204611,1.0204611 0 0 0 -1.02202,1.022018 1.0204611,1.0204611 0 0 0 1.02202,1.018313 1.0204611,1.0204611 0 0 0 1.01831,-1.018313 1.0204611,1.0204611 0 0 0 -1.01831,-1.022018 z m -39.318029,0.322158 a 1.0204611,1.0204611 0 0 0 -1.018315,1.018313 1.0204611,1.0204611 0 0 0 1.018315,1.022018 1.0204611,1.0204611 0 0 0 1.022016,-1.022018 1.0204611,1.0204611 0 0 0 -1.022016,-1.018313 z m 45.435319,0.377702 a 1.0204611,1.0204611 0 0 0 -1.01832,1.018313 1.0204611,1.0204611 0 0 0 1.01832,1.022018 1.0204611,1.0204611 0 0 0 1.02201,-1.022018 1.0204611,1.0204611 0 0 0 -1.02201,-1.018313 z m -33.156305,1.436747 a 1.0204611,1.0204611 0 0 0 -1.022016,1.022018 1.0204611,1.0204611 0 0 0 1.022016,1.022016 1.0204611,1.0204611 0 0 0 1.018315,-1.022016 1.0204611,1.0204611 0 0 0 -1.018315,-1.022018 z m -15.585757,0.377703 a 1.0204611,1.0204611 0 0 0 -1.022016,1.018313 1.0204611,1.0204611 0 0 0 1.022016,1.022018 1.0204611,1.0204611 0 0 0 1.022018,-1.022018 1.0204611,1.0204611 0 0 0 -1.022018,-1.018313 z m 49.867762,0.355484 a 1.0204611,1.0204611 0 0 0 -1.01832,1.022016 1.0204611,1.0204611 0 0 0 1.01832,1.018315 1.0204611,1.0204611 0 0 0 1.02201,-1.018315 1.0204611,1.0204611 0 0 0 -1.02201,-1.022016 z m -44.853955,0.03703 a 1.0204611,1.0204611 0 0 0 -1.022016,1.022018 1.0204611,1.0204611 0 0 0 1.022016,1.018313 1.0204611,1.0204611 0 0 0 1.018315,-1.018313 1.0204611,1.0204611 0 0 0 -1.018315,-1.022018 z m 38.558915,0.318457 a 1.0204611,1.0204611 0 0 0 -1.02201,1.018313 1.0204611,1.0204611 0 0 0 1.02201,1.022018 1.0204611,1.0204611 0 0 0 1.01832,-1.022018 1.0204611,1.0204611 0 0 0 -1.01832,-1.018313 z m 11.22368,0.885008 a 1.0204611,1.0204611 0 0 0 -1.01832,1.022016 1.0204611,1.0204611 0 0 0 1.01832,1.022017 1.0204611,1.0204611 0 0 0 1.02201,-1.022017 1.0204611,1.0204611 0 0 0 -1.02201,-1.022016 z m -34.030204,0.229572 a 1.0204611,1.0204611 0 0 0 -1.018314,1.018313 1.0204611,1.0204611 0 0 0 1.018314,1.022016 1.0204611,1.0204611 0 0 0 1.022017,-1.022016 1.0204611,1.0204611 0 0 0 -1.022017,-1.018313 z m -31.660304,0.03333 a 1.0204611,1.0204611 0 0 0 -1.018315,1.018314 1.0204611,1.0204611 0 0 0 1.018315,1.022018 1.0204611,1.0204611 0 0 0 1.022016,-1.022018 1.0204611,1.0204611 0 0 0 -1.022016,-1.018314 z m 62.828108,0.244395 a 1.0204611,1.0204611 0 0 0 -1.01831,1.018314 1.0204611,1.0204611 0 0 0 1.01831,1.022017 1.0204611,1.0204611 0 0 0 1.02202,-1.022017 1.0204611,1.0204611 0 0 0 -1.02202,-1.018314 z m -18.503681,0.125908 a 1.0204611,1.0204611 0 0 0 -1.018315,1.018315 1.0204611,1.0204611 0 0 0 1.018315,1.022016 1.0204611,1.0204611 0 0 0 1.022016,-1.022016 1.0204611,1.0204611 0 0 0 -1.022016,-1.018315 z m 6.476471,0.336971 a 1.0204611,1.0204611 0 0 0 -1.02201,1.022016 1.0204611,1.0204611 0 0 0 1.02201,1.022017 1.0204611,1.0204611 0 0 0 1.01832,-1.022017 1.0204611,1.0204611 0 0 0 -1.01832,-1.022016 z m -28.738666,0.355484 a 1.0204611,1.0204611 0 0 0 -1.022016,1.018313 1.0204611,1.0204611 0 0 0 1.022016,1.022018 1.0204611,1.0204611 0 0 0 1.018315,-1.022018 1.0204611,1.0204611 0 0 0 -1.018315,-1.018313 z m 18.785114,1.114589 a 1.0204611,1.0204611 0 0 0 -1.022016,1.018316 1.0204611,1.0204611 0 0 0 1.022016,1.022015 1.0204611,1.0204611 0 0 0 1.018315,-1.022015 1.0204611,1.0204611 0 0 0 -1.018315,-1.018316 z m -34.21905,0.03333 a 1.0204611,1.0204611 0 0 0 -1.022016,1.022017 1.0204611,1.0204611 0 0 0 1.022016,1.018314 1.0204611,1.0204611 0 0 0 1.018315,-1.018314 1.0204611,1.0204611 0 0 0 -1.018315,-1.022017 z m -5.46927,0.622097 a 1.0204611,1.0204611 0 0 0 -1.022018,1.018315 1.0204611,1.0204611 0 0 0 1.022018,1.022016 1.0204611,1.0204611 0 0 0 1.022016,-1.022016 1.0204611,1.0204611 0 0 0 -1.022016,-1.018315 z m 50.426902,0.144412 a 1.0204611,1.0204611 0 0 0 -1.01831,1.018315 1.0204611,1.0204611 0 0 0 1.01831,1.022016 1.0204611,1.0204611 0 0 0 1.02202,-1.022016 1.0204611,1.0204611 0 0 0 -1.02202,-1.018315 z m -20.403306,0.85167 a 1.0204611,1.0204611 0 0 0 -1.022016,1.018313 1.0204611,1.0204611 0 0 0 1.022016,1.022018 1.0204611,1.0204611 0 0 0 1.018313,-1.022018 1.0204611,1.0204611 0 0 0 -1.018313,-1.018313 z m 14.234178,0.359186 a 1.0204611,1.0204611 0 0 0 -1.018315,1.022018 1.0204611,1.0204611 0 0 0 1.018315,1.018313 1.0204611,1.0204611 0 0 0 1.022016,-1.018313 1.0204611,1.0204611 0 0 0 -1.022016,-1.022018 z M 49.219304,33.8613 a 1.0204611,1.0204611 0 0 0 -1.018313,1.022018 1.0204611,1.0204611 0 0 0 1.018313,1.018313 1.0204611,1.0204611 0 0 0 1.022018,-1.018313 1.0204611,1.0204611 0 0 0 -1.022018,-1.022018 z m 21.891898,0.285128 a 1.0204611,1.0204611 0 0 0 -1.022016,1.022016 1.0204611,1.0204611 0 0 0 1.022016,1.018315 1.0204611,1.0204611 0 0 0 1.022018,-1.018315 1.0204611,1.0204611 0 0 0 -1.022018,-1.022016 z m -11.908718,1.421937 a 1.0204611,1.0204611 0 0 0 -1.018314,1.022016 1.0204611,1.0204611 0 0 0 1.018314,1.022018 1.0204611,1.0204611 0 0 0 1.022018,-1.022018 1.0204611,1.0204611 0 0 0 -1.022018,-1.022016 z m 61.106246,0.129605 a 1.0204611,1.0204611 0 0 0 -1.01832,1.022018 1.0204611,1.0204611 0 0 0 1.01832,1.022015 1.0204611,1.0204611 0 0 0 1.02201,-1.022015 1.0204611,1.0204611 0 0 0 -1.02201,-1.022018 z m -24.928329,0.01479 a 1.0204611,1.0204611 0 0 0 -1.018315,1.018313 1.0204611,1.0204611 0 0 0 1.018315,1.022018 1.0204611,1.0204611 0 0 0 1.022016,-1.022018 1.0204611,1.0204611 0 0 0 -1.022016,-1.018313 z m 35.726149,0.318453 a 1.0204611,1.0204611 0 0 0 -1.02201,1.022018 1.0204611,1.0204611 0 0 0 1.02201,1.018313 1.0204611,1.0204611 0 0 0 1.01832,-1.018313 1.0204611,1.0204611 0 0 0 -1.01832,-1.022018 z m -23.81373,0.05925 a 1.0204611,1.0204611 0 0 0 -1.01831,1.022018 1.0204611,1.0204611 0 0 0 1.01831,1.018313 1.0204611,1.0204611 0 0 0 1.02202,-1.018313 1.0204611,1.0204611 0 0 0 -1.02202,-1.022018 z m -4.80644,0.285129 a 1.0204611,1.0204611 0 0 0 -1.02202,1.022018 1.0204611,1.0204611 0 0 0 1.02202,1.022016 1.0204611,1.0204611 0 0 0 1.01831,-1.022016 1.0204611,1.0204611 0 0 0 -1.01831,-1.022018 z m 12.58266,0.773918 a 1.0204611,1.0204611 0 0 0 -1.02203,1.018315 1.0204611,1.0204611 0 0 0 1.02203,1.022016 1.0204611,1.0204611 0 0 0 1.0183,-1.022016 1.0204611,1.0204611 0 0 0 -1.0183,-1.018315 z m 2.3699,0.222179 a 1.0204611,1.0204611 0 0 0 -1.02203,1.018313 1.0204611,1.0204611 0 0 0 1.02203,1.022018 1.0204611,1.0204611 0 0 0 1.02201,-1.022018 1.0204611,1.0204611 0 0 0 -1.02201,-1.018313 z m -25.331956,0.08147 a 1.0204611,1.0204611 0 0 0 -1.018313,1.022018 1.0204611,1.0204611 0 0 0 1.018313,1.022018 1.0204611,1.0204611 0 0 0 1.022018,-1.022018 1.0204611,1.0204611 0 0 0 -1.022018,-1.022018 z m 7.939146,0.533226 a 1.0204611,1.0204611 0 0 0 -1.018314,1.022018 1.0204611,1.0204611 0 0 0 1.018314,1.022018 1.0204611,1.0204611 0 0 0 1.02202,-1.022018 1.0204611,1.0204611 0 0 0 -1.02202,-1.022018 z m 9.67583,0.833168 a 1.0204611,1.0204611 0 0 0 -1.01831,1.022016 1.0204611,1.0204611 0 0 0 1.01831,1.018315 1.0204611,1.0204611 0 0 0 1.02203,-1.018315 1.0204611,1.0204611 0 0 0 -1.02203,-1.022016 z m -50.519476,0.04444 a 1.0204611,1.0204611 0 0 0 -1.022016,1.022018 1.0204611,1.0204611 0 0 0 1.022016,1.018313 1.0204611,1.0204611 0 0 0 1.018315,-1.018313 1.0204611,1.0204611 0 0 0 -1.018315,-1.022018 z m 44.631776,0.836869 a 1.0204611,1.0204611 0 0 0 -1.01832,1.022018 1.0204611,1.0204611 0 0 0 1.01832,1.022015 1.0204611,1.0204611 0 0 0 1.02201,-1.022015 1.0204611,1.0204611 0 0 0 -1.02201,-1.022018 z m -38.166409,0.63691 a 1.0204611,1.0204611 0 0 0 -1.018313,1.018313 1.0204611,1.0204611 0 0 0 1.018313,1.022018 1.0204611,1.0204611 0 0 0 1.022018,-1.022018 1.0204611,1.0204611 0 0 0 -1.022018,-1.018313 z m 7.461464,0.288831 a 1.0204611,1.0204611 0 0 0 -1.022016,1.018313 1.0204611,1.0204611 0 0 0 1.022016,1.022016 1.0204611,1.0204611 0 0 0 1.018315,-1.022016 1.0204611,1.0204611 0 0 0 -1.018315,-1.018313 z m 33.115565,0.399919 a 1.0204611,1.0204611 0 0 0 -1.02201,1.018315 1.0204611,1.0204611 0 0 0 1.02201,1.022016 1.0204611,1.0204611 0 0 0 1.02202,-1.022016 1.0204611,1.0204611 0 0 0 -1.02202,-1.018315 z m -55.744352,0.0038 a 1.0204611,1.0204611 0 0 0 -1.022016,1.018315 1.0204611,1.0204611 0 0 0 1.022016,1.022016 1.0204611,1.0204611 0 0 0 1.022018,-1.022016 1.0204611,1.0204611 0 0 0 -1.022018,-1.018315 z m 39.858659,0.04436 a 1.0204611,1.0204611 0 0 0 -1.022016,1.018313 1.0204611,1.0204611 0 0 0 1.022016,1.022018 1.0204611,1.0204611 0 0 0 1.018313,-1.022018 1.0204611,1.0204611 0 0 0 -1.018313,-1.018313 z m 4.388007,0.351781 a 1.0204611,1.0204611 0 0 0 -1.022016,1.022016 1.0204611,1.0204611 0 0 0 1.022016,1.022018 1.0204611,1.0204611 0 0 0 1.022018,-1.022018 1.0204611,1.0204611 0 0 0 -1.022018,-1.022016 z m 8.202056,0.92574 a 1.0204611,1.0204611 0 0 0 -1.02202,1.018313 1.0204611,1.0204611 0 0 0 1.02202,1.022018 1.0204611,1.0204611 0 0 0 1.02202,-1.022018 1.0204611,1.0204611 0 0 0 -1.02202,-1.018313 z m -46.886876,0.09258 a 1.0204611,1.0204611 0 0 0 -1.018313,1.022018 1.0204611,1.0204611 0 0 0 1.018313,1.018313 1.0204611,1.0204611 0 0 0 1.022018,-1.018313 1.0204611,1.0204611 0 0 0 -1.022018,-1.022018 z m 29.145996,0.651721 a 1.0204611,1.0204611 0 0 0 -1.022016,1.022018 1.0204611,1.0204611 0 0 0 1.022016,1.018313 1.0204611,1.0204611 0 0 0 1.022018,-1.018313 1.0204611,1.0204611 0 0 0 -1.022018,-1.022018 z m 44.86876,0.348079 a 1.0204611,1.0204611 0 0 0 -1.02201,1.022016 1.0204611,1.0204611 0 0 0 1.02201,1.018315 1.0204611,1.0204611 0 0 0 1.01831,-1.018315 1.0204611,1.0204611 0 0 0 -1.01831,-1.022016 z m -19.32945,0.799836 a 1.0204611,1.0204611 0 0 0 -1.01831,1.018313 1.0204611,1.0204611 0 0 0 1.01831,1.022018 1.0204611,1.0204611 0 0 0 1.02202,-1.022018 1.0204611,1.0204611 0 0 0 -1.02202,-1.018313 z m -59.691708,0.370295 a 1.0204611,1.0204611 0 0 0 -1.022016,1.018315 1.0204611,1.0204611 0 0 0 1.022016,1.022016 1.0204611,1.0204611 0 0 0 1.018316,-1.022016 1.0204611,1.0204611 0 0 0 -1.018316,-1.018315 z m 27.264894,0.525816 a 1.0204611,1.0204611 0 0 0 -1.022018,1.018314 1.0204611,1.0204611 0 0 0 1.022018,1.022017 1.0204611,1.0204611 0 0 0 1.022016,-1.022017 1.0204611,1.0204611 0 0 0 -1.022016,-1.018314 z m -12.852974,0.262911 a 1.0204611,1.0204611 0 0 0 -1.022017,1.022016 1.0204611,1.0204611 0 0 0 1.022017,1.018315 1.0204611,1.0204611 0 0 0 1.018314,-1.018315 1.0204611,1.0204611 0 0 0 -1.018314,-1.022016 z m 42.287798,0.08516 a 1.0204611,1.0204611 0 0 0 -1.02202,1.022016 1.0204611,1.0204611 0 0 0 1.02202,1.022018 1.0204611,1.0204611 0 0 0 1.02202,-1.022018 1.0204611,1.0204611 0 0 0 -1.02202,-1.022016 z m 13.56394,0.01479 a 1.0204611,1.0204611 0 0 0 -1.02201,1.022017 1.0204611,1.0204611 0 0 0 1.02201,1.018314 1.0204611,1.0204611 0 0 0 1.01832,-1.018314 1.0204611,1.0204611 0 0 0 -1.01832,-1.022017 z m -66.445906,0.222178 a 1.0204611,1.0204611 0 0 0 -1.018313,1.018313 1.0204611,1.0204611 0 0 0 1.018313,1.022018 1.0204611,1.0204611 0 0 0 1.022018,-1.022018 1.0204611,1.0204611 0 0 0 -1.022018,-1.018313 z m 60.772966,0.04814 a 1.0204611,1.0204611 0 0 0 -1.01831,1.022018 1.0204611,1.0204611 0 0 0 1.01831,1.018313 1.0204611,1.0204611 0 0 0 1.02203,-1.018313 1.0204611,1.0204611 0 0 0 -1.02203,-1.022018 z m -12.1457,0.359189 a 1.0204611,1.0204611 0 0 0 -1.01831,1.022016 1.0204611,1.0204611 0 0 0 1.01831,1.018313 1.0204611,1.0204611 0 0 0 1.02202,-1.018313 1.0204611,1.0204611 0 0 0 -1.02202,-1.022016 z m -43.354251,0.01119 a 1.0204611,1.0204611 0 0 0 -1.022016,1.018313 1.0204611,1.0204611 0 0 0 1.022016,1.022018 1.0204611,1.0204611 0 0 0 1.018313,-1.022018 1.0204611,1.0204611 0 0 0 -1.018313,-1.018313 z m 36.92221,0.366592 a 1.0204611,1.0204611 0 0 0 -1.018313,1.018315 1.0204611,1.0204611 0 0 0 1.018313,1.022016 1.0204611,1.0204611 0 0 0 1.022018,-1.022016 1.0204611,1.0204611 0 0 0 -1.022018,-1.018315 z m -48.171802,1.65147 a 1.0204611,1.0204611 0 0 0 -1.022016,1.022015 1.0204611,1.0204611 0 0 0 1.022016,1.018316 1.0204611,1.0204611 0 0 0 1.018315,-1.018316 1.0204611,1.0204611 0 0 0 -1.018315,-1.022015 z m 10.094268,0.133301 a 1.0204611,1.0204611 0 0 0 -1.022016,1.018315 1.0204611,1.0204611 0 0 0 1.022016,1.022016 1.0204611,1.0204611 0 0 0 1.018315,-1.022016 1.0204611,1.0204611 0 0 0 -1.018315,-1.018315 z m 56.196125,0.0074 a 1.0204611,1.0204611 0 0 0 -1.02203,1.022016 1.0204611,1.0204611 0 0 0 1.02203,1.022018 1.0204611,1.0204611 0 0 0 1.02201,-1.022018 1.0204611,1.0204611 0 0 0 -1.02201,-1.022016 z m -38.314532,0.09997 a 1.0204611,1.0204611 0 0 0 -1.018315,1.022018 1.0204611,1.0204611 0 0 0 1.018315,1.018313 1.0204611,1.0204611 0 0 0 1.022016,-1.018313 1.0204611,1.0204611 0 0 0 -1.022016,-1.022018 z m 5.40632,0.477682 a 1.0204611,1.0204611 0 0 0 -1.018313,1.018315 1.0204611,1.0204611 0 0 0 1.018313,1.022016 1.0204611,1.0204611 0 0 0 1.022018,-1.022016 1.0204611,1.0204611 0 0 0 -1.022018,-1.018315 z m -15.345065,0.855384 a 1.0204611,1.0204611 0 0 0 -1.022015,1.022017 1.0204611,1.0204611 0 0 0 1.022015,1.022016 1.0204611,1.0204611 0 0 0 1.022018,-1.022016 1.0204611,1.0204611 0 0 0 -1.022018,-1.022017 z m 12.578955,0.01858 a 1.0204611,1.0204611 0 0 0 -1.022018,1.022015 1.0204611,1.0204611 0 0 0 1.022018,1.022018 1.0204611,1.0204611 0 0 0 1.018313,-1.022018 1.0204611,1.0204611 0 0 0 -1.018313,-1.022015 z m -8.005798,0.355484 a 1.0204611,1.0204611 0 0 0 -1.022018,1.018313 1.0204611,1.0204611 0 0 0 1.022018,1.022018 1.0204611,1.0204611 0 0 0 1.022016,-1.022018 1.0204611,1.0204611 0 0 0 -1.022016,-1.018313 z m -18.518503,0.518413 a 1.0204611,1.0204611 0 0 0 -1.018313,1.022018 1.0204611,1.0204611 0 0 0 1.018313,1.018313 1.0204611,1.0204611 0 0 0 1.022018,-1.018313 1.0204611,1.0204611 0 0 0 -1.022018,-1.022018 z m 5.332262,0.159219 a 1.0204611,1.0204611 0 0 0 -1.022016,1.022016 1.0204611,1.0204611 0 0 0 1.022016,1.018315 1.0204611,1.0204611 0 0 0 1.022018,-1.018315 1.0204611,1.0204611 0 0 0 -1.022018,-1.022016 z m 42.480351,0.399919 a 1.0204611,1.0204611 0 0 0 -1.022014,1.022018 1.0204611,1.0204611 0 0 0 1.022014,1.018313 1.0204611,1.0204611 0 0 0 1.01832,-1.018313 1.0204611,1.0204611 0 0 0 -1.01832,-1.022018 z m -39.258776,0.162935 a 1.0204611,1.0204611 0 0 0 -1.018313,1.018313 1.0204611,1.0204611 0 0 0 1.018313,1.022016 1.0204611,1.0204611 0 0 0 1.022018,-1.022016 1.0204611,1.0204611 0 0 0 -1.022018,-1.018313 z m 26.550222,0.07777 a 1.0204611,1.0204611 0 0 0 -1.018315,1.018315 1.0204611,1.0204611 0 0 0 1.018315,1.022016 1.0204611,1.0204611 0 0 0 1.022016,-1.022016 1.0204611,1.0204611 0 0 0 -1.022016,-1.018315 z m 22.125184,0.07406 a 1.0204611,1.0204611 0 0 0 -1.02202,1.022016 1.0204611,1.0204611 0 0 0 1.02202,1.022017 1.0204611,1.0204611 0 0 0 1.01831,-1.022017 1.0204611,1.0204611 0 0 0 -1.01831,-1.022016 z m -33.845052,0.851681 a 1.0204611,1.0204611 0 0 0 -1.022017,1.022016 1.0204611,1.0204611 0 0 0 1.022017,1.018313 1.0204611,1.0204611 0 0 0 1.018314,-1.018313 1.0204611,1.0204611 0 0 0 -1.018314,-1.022016 z m 47.312722,0.685047 a 1.0204611,1.0204611 0 0 0 -1.02203,1.022016 1.0204611,1.0204611 0 0 0 1.02203,1.022018 1.0204611,1.0204611 0 0 0 1.01831,-1.022018 1.0204611,1.0204611 0 0 0 -1.01831,-1.022016 z m -6.03212,0.414732 a 1.0204611,1.0204611 0 0 0 -1.01832,1.018313 1.0204611,1.0204611 0 0 0 1.01832,1.022018 1.0204611,1.0204611 0 0 0 1.02201,-1.022018 1.0204611,1.0204611 0 0 0 -1.02201,-1.018313 z m -35.048521,0.151824 a 1.0204611,1.0204611 0 0 0 -1.022016,1.022016 1.0204611,1.0204611 0 0 0 1.022016,1.018315 1.0204611,1.0204611 0 0 0 1.018315,-1.018315 1.0204611,1.0204611 0 0 0 -1.018315,-1.022016 z m -11.649511,0.05555 a 1.0204611,1.0204611 0 0 0 -1.018313,1.022016 1.0204611,1.0204611 0 0 0 1.018313,1.018313 1.0204611,1.0204611 0 0 0 1.022018,-1.018313 1.0204611,1.0204611 0 0 0 -1.022018,-1.022016 z m -6.30614,0.362889 a 1.0204611,1.0204611 0 0 0 -1.018314,1.018314 1.0204611,1.0204611 0 0 0 1.018314,1.022017 1.0204611,1.0204611 0 0 0 1.022017,-1.022017 1.0204611,1.0204611 0 0 0 -1.022017,-1.018314 z m 40.051212,0.240693 a 1.0204611,1.0204611 0 0 0 -1.02202,1.018313 1.0204611,1.0204611 0 0 0 1.02202,1.022018 1.0204611,1.0204611 0 0 0 1.01831,-1.022018 1.0204611,1.0204611 0 0 0 -1.01831,-1.018313 z m 16.61147,0.09258 a 1.0204611,1.0204611 0 0 0 -1.01832,1.018315 1.0204611,1.0204611 0 0 0 1.01832,1.022016 1.0204611,1.0204611 0 0 0 1.02203,-1.022016 1.0204611,1.0204611 0 0 0 -1.02203,-1.018315 z m -54.563104,0.06294 a 1.0204611,1.0204611 0 0 0 -1.022018,1.018316 1.0204611,1.0204611 0 0 0 1.022018,1.022015 1.0204611,1.0204611 0 0 0 1.022018,-1.022015 1.0204611,1.0204611 0 0 0 -1.022018,-1.018316 z m 22.384392,0.425842 a 1.0204611,1.0204611 0 0 0 -1.022018,1.022016 1.0204611,1.0204611 0 0 0 1.022018,1.018313 1.0204611,1.0204611 0 0 0 1.022016,-1.018313 1.0204611,1.0204611 0 0 0 -1.022016,-1.022016 z m -5.432243,1.059045 a 1.0204611,1.0204611 0 0 0 -1.022016,1.018315 1.0204611,1.0204611 0 0 0 1.022016,1.022016 1.0204611,1.0204611 0 0 0 1.018315,-1.022016 1.0204611,1.0204611 0 0 0 -1.018315,-1.018315 z m 29.260795,0.159219 a 1.0204611,1.0204611 0 0 0 -1.02203,1.022016 1.0204611,1.0204611 0 0 0 1.02203,1.022018 1.0204611,1.0204611 0 0 0 1.01831,-1.022018 1.0204611,1.0204611 0 0 0 -1.01831,-1.022016 z m 4.48797,0.255503 a 1.0204611,1.0204611 0 0 0 -1.0183,1.018315 1.0204611,1.0204611 0 0 0 1.0183,1.022016 1.0204611,1.0204611 0 0 0 1.02203,-1.022016 1.0204611,1.0204611 0 0 0 -1.02203,-1.018315 z M 74.640122,57.03816 a 1.0204611,1.0204611 0 0 0 -1.022016,1.018313 1.0204611,1.0204611 0 0 0 1.022016,1.022016 1.0204611,1.0204611 0 0 0 1.018315,-1.022016 1.0204611,1.0204611 0 0 0 -1.018315,-1.018313 z m -5.809943,0.203661 a 1.0204611,1.0204611 0 0 0 -1.018313,1.022018 1.0204611,1.0204611 0 0 0 1.018313,1.018313 1.0204611,1.0204611 0 0 0 1.022018,-1.018313 1.0204611,1.0204611 0 0 0 -1.022018,-1.022018 z m 30.019895,0.33697 a 1.0204611,1.0204611 0 0 0 -1.018315,1.022016 1.0204611,1.0204611 0 0 0 1.018315,1.018315 1.0204611,1.0204611 0 0 0 1.022016,-1.018315 1.0204611,1.0204611 0 0 0 -1.022016,-1.022016 z m -33.959844,0.4999 a 1.0204611,1.0204611 0 0 0 -1.022016,1.022016 1.0204611,1.0204611 0 0 0 1.022016,1.018315 1.0204611,1.0204611 0 0 0 1.022018,-1.018315 1.0204611,1.0204611 0 0 0 -1.022018,-1.022016 z m 42.51738,0.09258 a 1.0204611,1.0204611 0 0 0 -1.02201,1.022016 1.0204611,1.0204611 0 0 0 1.02201,1.018315 1.0204611,1.0204611 0 0 0 1.01832,-1.018315 1.0204611,1.0204611 0 0 0 -1.01832,-1.022016 z m -16.363376,1.284926 a 1.0204611,1.0204611 0 0 0 -1.022016,1.022018 1.0204611,1.0204611 0 0 0 1.022016,1.018313 1.0204611,1.0204611 0 0 0 1.022018,-1.018313 1.0204611,1.0204611 0 0 0 -1.022018,-1.022018 z m -17.070643,0.03333 a 1.0204611,1.0204611 0 0 0 -1.018316,1.022018 1.0204611,1.0204611 0 0 0 1.018316,1.018313 1.0204611,1.0204611 0 0 0 1.022015,-1.018313 1.0204611,1.0204611 0 0 0 -1.022015,-1.022018 z m -11.423632,0.88871 a 1.0204611,1.0204611 0 0 0 -1.018313,1.018316 1.0204611,1.0204611 0 0 0 1.018313,1.022015 1.0204611,1.0204611 0 0 0 1.022018,-1.022015 1.0204611,1.0204611 0 0 0 -1.022018,-1.018316 z m 2.817952,0.29994 a 1.0204611,1.0204611 0 0 0 -1.018313,1.018315 1.0204611,1.0204611 0 0 0 1.018313,1.022016 1.0204611,1.0204611 0 0 0 1.022018,-1.022016 1.0204611,1.0204611 0 0 0 -1.022018,-1.018315 z m 21.854869,0.07777 a 1.0204611,1.0204611 0 0 0 -1.018313,1.022018 1.0204611,1.0204611 0 0 0 1.018313,1.018313 1.0204611,1.0204611 0 0 0 1.022018,-1.018313 1.0204611,1.0204611 0 0 0 -1.022018,-1.022018 z m 7.365187,0.02963 a 1.0204611,1.0204611 0 0 0 -1.022018,1.022017 1.0204611,1.0204611 0 0 0 1.022018,1.018314 1.0204611,1.0204611 0 0 0 1.018313,-1.018314 1.0204611,1.0204611 0 0 0 -1.018313,-1.022017 z m -16.170825,0.770215 a 1.0204611,1.0204611 0 0 0 -1.022018,1.022018 1.0204611,1.0204611 0 0 0 1.022018,1.018313 1.0204611,1.0204611 0 0 0 1.018313,-1.018313 1.0204611,1.0204611 0 0 0 -1.018313,-1.022018 z m 25.957748,0.977581 a 1.0204611,1.0204611 0 0 0 -1.02202,1.022018 1.0204611,1.0204611 0 0 0 1.02202,1.018314 1.0204611,1.0204611 0 0 0 1.02202,-1.018314 1.0204611,1.0204611 0 0 0 -1.02202,-1.022018 z M 81.594281,62.89256 a 1.0204611,1.0204611 0 0 0 -1.022016,1.022018 1.0204611,1.0204611 0 0 0 1.022016,1.018313 1.0204611,1.0204611 0 0 0 1.018313,-1.018313 1.0204611,1.0204611 0 0 0 -1.018313,-1.022018 z m -21.240177,0.69986 a 1.0204611,1.0204611 0 0 0 -1.022016,1.022016 1.0204611,1.0204611 0 0 0 1.022016,1.018315 1.0204611,1.0204611 0 0 0 1.022018,-1.018315 1.0204611,1.0204611 0 0 0 -1.022018,-1.022016 z m 56.236846,0.322158 a 1.0204611,1.0204611 0 0 0 -1.02201,1.018313 1.0204611,1.0204611 0 0 0 1.02201,1.022018 1.0204611,1.0204611 0 0 0 1.01832,-1.022018 1.0204611,1.0204611 0 0 0 -1.01832,-1.018313 z m -31.515886,0.418434 a 1.0204611,1.0204611 0 0 0 -1.018315,1.022016 1.0204611,1.0204611 0 0 0 1.018315,1.022018 1.0204611,1.0204611 0 0 0 1.022016,-1.022018 1.0204611,1.0204611 0 0 0 -1.022016,-1.022016 z m 16.518906,0.05555 a 1.0204611,1.0204611 0 0 0 -1.01832,1.018313 1.0204611,1.0204611 0 0 0 1.01832,1.022018 1.0204611,1.0204611 0 0 0 1.02201,-1.022018 1.0204611,1.0204611 0 0 0 -1.02201,-1.018313 z m -34.285707,0.188852 a 1.0204611,1.0204611 0 0 0 -1.022018,1.018313 1.0204611,1.0204611 0 0 0 1.022018,1.022018 1.0204611,1.0204611 0 0 0 1.018313,-1.022018 1.0204611,1.0204611 0 0 0 -1.018313,-1.018313 z m 25.705947,0.09997 a 1.0204611,1.0204611 0 0 0 -1.022018,1.018314 1.0204611,1.0204611 0 0 0 1.022018,1.022016 1.0204611,1.0204611 0 0 0 1.018313,-1.022016 1.0204611,1.0204611 0 0 0 -1.018313,-1.018314 z m 20.26259,0.06666 a 1.0204611,1.0204611 0 0 0 -1.02201,1.022016 1.0204611,1.0204611 0 0 0 1.02201,1.018315 1.0204611,1.0204611 0 0 0 1.01831,-1.018382 1.0204611,1.0204611 0 0 0 -1.01831,-1.022016 z M 96.572754,64.85513 a 1.0204611,1.0204611 0 0 0 -1.022018,1.022016 1.0204611,1.0204611 0 0 0 1.022018,1.018314 1.0204611,1.0204611 0 0 0 1.018313,-1.018314 1.0204611,1.0204611 0 0 0 -1.018313,-1.022016 z m -19.207253,1.292332 a 1.0204611,1.0204611 0 0 0 -1.022016,1.018315 1.0204611,1.0204611 0 0 0 1.022016,1.022016 1.0204611,1.0204611 0 0 0 1.018315,-1.022016 1.0204611,1.0204611 0 0 0 -1.018315,-1.018315 z m 4.010306,0.618395 a 1.0204611,1.0204611 0 0 0 -1.022018,1.022016 1.0204611,1.0204611 0 0 0 1.022018,1.018315 1.0204611,1.0204611 0 0 0 1.018313,-1.018315 1.0204611,1.0204611 0 0 0 -1.018313,-1.022016 z m 28.472053,0.211068 a 1.0204611,1.0204611 0 0 0 -1.01831,1.018315 1.0204611,1.0204611 0 0 0 1.01831,1.022016 1.0204611,1.0204611 0 0 0 1.02202,-1.022016 1.0204611,1.0204611 0 0 0 -1.02202,-1.018315 z M 85.541636,67.0732 a 1.0204611,1.0204611 0 0 0 -1.022016,1.018315 1.0204611,1.0204611 0 0 0 1.022016,1.022016 1.0204611,1.0204611 0 0 0 1.018315,-1.022016 1.0204611,1.0204611 0 0 0 -1.018315,-1.018315 z m 6.80604,1.644115 a 1.0204611,1.0204611 0 0 0 -1.018313,1.022016 1.0204611,1.0204611 0 0 0 1.018313,1.018315 1.0204611,1.0204611 0 0 0 1.022018,-1.018315 1.0204611,1.0204611 0 0 0 -1.022018,-1.022016 z m -23.747079,0.107384 a 1.0204611,1.0204611 0 0 0 -1.022018,1.022016 1.0204611,1.0204611 0 0 0 1.022018,1.018314 1.0204611,1.0204611 0 0 0 1.018313,-1.018314 1.0204611,1.0204611 0 0 0 -1.018313,-1.022016 z m 9.431437,0.240693 a 1.0204611,1.0204611 0 0 0 -1.018313,1.018313 1.0204611,1.0204611 0 0 0 1.018313,1.022016 1.0204611,1.0204611 0 0 0 1.022016,-1.022016 1.0204611,1.0204611 0 0 0 -1.022016,-1.018313 z m 19.984873,0.05555 a 1.0204611,1.0204611 0 0 0 -1.018314,1.021955 1.0204611,1.0204611 0 0 0 1.018314,1.018313 1.0204611,1.0204611 0 0 0 1.022017,-1.018313 1.0204611,1.0204611 0 0 0 -1.022017,-1.022016 z m 9.568453,0.192492 a 1.0204611,1.0204611 0 0 0 -1.02202,1.018313 1.0204611,1.0204611 0 0 0 1.02202,1.022018 1.0204611,1.0204611 0 0 0 1.01831,-1.022018 1.0204611,1.0204611 0 0 0 -1.01831,-1.018313 z m -26.402108,0.140715 a 1.0204611,1.0204611 0 0 0 -1.022016,1.022016 1.0204611,1.0204611 0 0 0 1.022016,1.018315 1.0204611,1.0204611 0 0 0 1.018315,-1.018315 1.0204611,1.0204611 0 0 0 -1.018315,-1.022016 z m 23.813738,0.02592 a 1.0204611,1.0204611 0 0 0 -1.01832,1.022016 1.0204611,1.0204611 0 0 0 1.01832,1.018313 1.0204611,1.0204611 0 0 0 1.02201,-1.018313 1.0204611,1.0204611 0 0 0 -1.02201,-1.022016 z m -9.712867,0.207366 a 1.0204611,1.0204611 0 0 0 -1.022016,1.022016 1.0204611,1.0204611 0 0 0 1.022016,1.018315 1.0204611,1.0204611 0 0 0 1.018315,-1.018315 1.0204611,1.0204611 0 0 0 -1.018315,-1.022016 z m -9.072251,0.307347 a 1.0204611,1.0204611 0 0 0 -1.018313,1.022018 1.0204611,1.0204611 0 0 0 1.018313,1.018313 1.0204611,1.0204611 0 0 0 1.022016,-1.018313 1.0204611,1.0204611 0 0 0 -1.022016,-1.022018 z m 25.765198,0.04444 a 1.0204611,1.0204611 0 0 0 -1.02203,1.022018 1.0204611,1.0204611 0 0 0 1.02203,1.018313 1.0204611,1.0204611 0 0 0 1.01832,-1.018313 1.0204611,1.0204611 0 0 0 -1.01832,-1.022018 z m -9.78693,1.144215 a 1.0204611,1.0204611 0 0 0 -1.02201,1.022018 1.0204611,1.0204611 0 0 0 1.02201,1.018313 1.0204611,1.0204611 0 0 0 1.01832,-1.018313 1.0204611,1.0204611 0 0 0 -1.01832,-1.022018 z m -27.298215,0.36289 a 1.0204611,1.0204611 0 0 0 -1.018314,1.018315 1.0204611,1.0204611 0 0 0 1.018314,1.022016 1.0204611,1.0204611 0 0 0 1.022015,-1.022016 1.0204611,1.0204611 0 0 0 -1.022015,-1.018315 z m 4.706462,1.184947 a 1.0204611,1.0204611 0 0 0 -1.022018,1.018315 1.0204611,1.0204611 0 0 0 1.022018,1.022016 1.0204611,1.0204611 0 0 0 1.018313,-1.022016 1.0204611,1.0204611 0 0 0 -1.018313,-1.018315 z m 11.83836,0.02592 a 1.0204611,1.0204611 0 0 0 -1.022016,1.018315 1.0204611,1.0204611 0 0 0 1.022016,1.022016 1.0204611,1.0204611 0 0 0 1.018315,-1.022016 1.0204611,1.0204611 0 0 0 -1.018315,-1.018315 z m -3.199357,0.492494 a 1.0204611,1.0204611 0 0 0 -1.018313,1.022016 1.0204611,1.0204611 0 0 0 1.018313,1.018316 1.0204611,1.0204611 0 0 0 1.022018,-1.018316 1.0204611,1.0204611 0 0 0 -1.022018,-1.022016 z m -2.084765,0.111082 a 1.0204611,1.0204611 0 0 0 -1.018314,1.022016 1.0204611,1.0204611 0 0 0 1.018314,1.022018 1.0204611,1.0204611 0 0 0 1.022016,-1.022018 1.0204611,1.0204611 0 0 0 -1.022016,-1.022016 z m 21.199445,0.392513 a 1.0204611,1.0204611 0 0 0 -1.02202,1.022016 1.0204611,1.0204611 0 0 0 1.02202,1.018315 1.0204611,1.0204611 0 0 0 1.01831,-1.018315 1.0204611,1.0204611 0 0 0 -1.01831,-1.022016 z M 82.138615,73.94213 a 1.0204611,1.0204611 0 0 0 -1.018313,1.022017 1.0204611,1.0204611 0 0 0 1.018313,1.022016 1.0204611,1.0204611 0 0 0 1.022018,-1.022016 1.0204611,1.0204611 0 0 0 -1.022018,-1.022017 z m 8.924135,1.988489 a 1.0204611,1.0204611 0 0 0 -1.018315,1.018315 1.0204611,1.0204611 0 0 0 1.018315,1.022016 1.0204611,1.0204611 0 0 0 1.022016,-1.022016 1.0204611,1.0204611 0 0 0 -1.022016,-1.018315 z m 15.2599,0.08516 a 1.0204611,1.0204611 0 0 0 -1.01832,1.022018 1.0204611,1.0204611 0 0 0 1.01832,1.018313 1.0204611,1.0204611 0 0 0 1.02201,-1.018313 1.0204611,1.0204611 0 0 0 -1.02201,-1.022018 z m -2.9957,1.103484 a 1.0204611,1.0204611 0 0 0 -1.02202,1.018313 1.0204611,1.0204611 0 0 0 1.02202,1.022016 1.0204611,1.0204611 0 0 0 1.01832,-1.022016 1.0204611,1.0204611 0 0 0 -1.01832,-1.018313 z m -32.700835,0.185155 a 1.0204611,1.0204611 0 0 0 -1.022018,1.018313 1.0204611,1.0204611 0 0 0 1.022018,1.022018 1.0204611,1.0204611 0 0 0 1.022016,-1.022018 1.0204611,1.0204611 0 0 0 -1.022016,-1.018313 z m 8.905617,0.455463 a 1.0204611,1.0204611 0 0 0 -1.018313,1.022018 1.0204611,1.0204611 0 0 0 1.018313,1.018313 1.0204611,1.0204611 0 0 0 1.022018,-1.018313 1.0204611,1.0204611 0 0 0 -1.022018,-1.022018 z m 5.35448,0.01479 a 1.0204611,1.0204611 0 0 0 -1.022016,1.022016 1.0204611,1.0204611 0 0 0 1.022016,1.018313 1.0204611,1.0204611 0 0 0 1.018315,-1.018313 1.0204611,1.0204611 0 0 0 -1.018315,-1.022016 z m -10.031317,0.666532 a 1.0204611,1.0204611 0 0 0 -1.022017,1.022018 1.0204611,1.0204611 0 0 0 1.022017,1.018313 1.0204611,1.0204611 0 0 0 1.018314,-1.018313 1.0204611,1.0204611 0 0 0 -1.018314,-1.022018 z m 19.718259,0.111082 a 1.0204611,1.0204611 0 0 0 -1.022015,1.022016 1.0204611,1.0204611 0 0 0 1.022015,1.022017 1.0204611,1.0204611 0 0 0 1.018316,-1.022017 1.0204611,1.0204611 0 0 0 -1.018316,-1.022016 z m -7.30964,0.381405 a 1.0204611,1.0204611 0 0 0 -1.018316,1.022016 1.0204611,1.0204611 0 0 0 1.018316,1.018315 1.0204611,1.0204611 0 0 0 1.022015,-1.018315 1.0204611,1.0204611 0 0 0 -1.022015,-1.022016 z m 9.846169,0.266613 a 1.0204611,1.0204611 0 0 0 -1.022018,1.018313 1.0204611,1.0204611 0 0 0 1.022018,1.022018 1.0204611,1.0204611 0 0 0 1.018313,-1.022018 1.0204611,1.0204611 0 0 0 -1.018313,-1.018313 z M 81.612797,81.95901 a 1.0204611,1.0204611 0 0 0 -1.018316,1.018313 1.0204611,1.0204611 0 0 0 1.018316,1.022018 1.0204611,1.0204611 0 0 0 1.022015,-1.022018 1.0204611,1.0204611 0 0 0 -1.022015,-1.018313 z M 80.1168,89.442692 V 107.35762 H 98.031719 V 89.442692 Z M 62.201882,109.14984 v 8.95747 h 53.744758 v -8.95747 z m 5.376697,10.74969 v 41.20283 8.95746 h 5.372994 l 3.584465,-8.95746 H 80.1168 l 5.372996,8.95746 h 7.16893 l 5.372993,-8.95746 h 3.584461 l 3.58077,8.95746 h 5.37299 v -8.95746 -41.20283 z"
         style="display:inline;stroke-width:1.89592">
        <title
           id="title25">Nébuliseur2</title>
      </path>
      <title
         id="title26">Nébuliseur2</title>
    </symbol>
  </defs>
  <g
     inkscape:label="Calque 1"
     inkscape:groupmode="layer"
     id="layer1">
    <path
       id="path1"
       style="stroke:none;stroke-width:0.99242;stroke-linecap:round;stroke-linejoin:round;stroke-miterlimit:4;stroke-dasharray:none;stroke-opacity:1;paint-order:stroke fill markers"
       d="m 18.476619,2.6458333 0.04422,8.9958337 H 29.192595 L 29.14838,2.6458333 Z m -9.7977567,10.0541677 -2.8e-6,5.291667 H 37.783031 l 3e-6,-5.291667 z m 3.3758167,6.35 -0.07422,25.929164 3.894537,4e-6 1.322917,-3.96875 h 2.645833 l 1.322917,3.96875 h 5.291667 l 1.322917,-3.96875 h 2.645833 l 1.322917,3.96875 c 0.637719,1.7e-5 2.962609,-4e-6 3.894535,-4e-6 0,-8.554059 0.07428,-17.156304 0.07422,-25.929164 z"
       sodipodi:nodetypes="ccccccccccccccccccccccc" />
  </g>
  <metadata
     id="metadata139">
    <rdf:RDF>
      <cc:Work
         rdf:about="">
        <dc:creator>
          <cc:Agent>
            <dc:title>Nicolas Blais St-Laurent</dc:title>
          </cc:Agent>
        </dc:creator>
      </cc:Work>
    </rdf:RDF>
  </metadata>
</svg>
